<svg xmlns="http://www.w3.org/2000/svg" viewBox="0 0 512 512"><path d="M256 0C114.84 0 0 114.84 0 256s114.84 256 256 256 256-114.85 256-256S397.16 0 256 0zm0 507.19C117.48 507.19 4.8 394.51 4.8 256S117.48 4.79 256 4.79 507.21 117.48 507.21 256 394.51 507.19 256 507.19zM490.38 207.9c-24.31-106.83-90-172.25-184.92-184.23a135.3 135.3 0 0 0-34.48.06 170.76 170.76 0 0 0-29-4c-70.61-4-141.54 34.13-185.13 99.36-46.3 69.27-53 154.12-18 227a132.46 132.46 0 0 0 31 42c26.14 59.55 75.79 98.06 141 108.84a228.71 228.71 0 0 0 37.11 3c74.18 0 150.39-34.74 198.27-92.65a119 119 0 0 0 14.56-22.51c6.21-7.34 11.7-16.07 17.35-28.74 20.22-45.25 24.32-95.03 12.24-148.13zm-267.25-63.15c9.77 11.48 19.79 18.55 30.24 23.14 4.77 4.88 13.7 8.33 24.95 12.65 22.42 8.62 50.31 19.33 59.9 47.08 8 23.22 3.39 52.44-11 69.46-6.94 8.22-19.37 17.33-39.3 14-14.44-2.41-26.2-10-30.67-19.89-3.26-7.17-2.64-15.42 1.74-24.06a16.5 16.5 0 0 0 20.58 5c14.22.8 27-8.27 32.74-23.38 6.2-16.36 3.43-39.65-16.73-54.74-18.44-13.79-38.5-15.91-59.65-6.28-34.51 15.7-51.89 53.84-45.82 96.55-2.36-4.22-4.79-8.4-7.23-12.51-7.79-13.11-15.85-26.67-20.07-41.7-16.81-59.86-6.63-117.21 27.92-157.3a131.89 131.89 0 0 1 43.43-33.34c-12.88 9.06-22.92 21.19-27.93 34.81-5.91 16.19-7.79 41.48 16.9 70.51zm135.64 138.89c-5.82 2.57-12.06 8.2-19.62 15.09-18.31 16.65-43.38 39.44-79.57 30-46.22-12.09-52.73-37.29-52.49-51.24.36-21.69 17.47-43.83 37.36-48.33 12.35-2.83 23.35 1.84 31.82 12.84a16.73 16.73 0 0 0-3.9-.5 16.38 16.38 0 0 0-16.54 16.18 15.81 15.81 0 0 0 .64 4.2c-8.28 13.92-6.58 24.68-3.58 31.29 5.13 11.29 18.26 20 34.25 22.62a55.17 55.17 0 0 0 9.05.78c16.94 0 28.07-8.58 34.7-16.43 15.4-18.23 20.39-49.41 11.85-74.12-10.31-29.86-40.59-41.48-62.7-50l-4.25-1.65c7.92 1.41 16.11 2.2 24.65 3 9.52.91 19.37 1.84 29.66 3.76 53.62 10 96 40.15 119.39 84.84a157.69 157.69 0 0 1 17.07 54.61 73.69 73.69 0 0 0-25.33-34.41c-21.12-15.58-53.34-21.17-82.46-2.53zm-156.5 27.69c-.92-3-2.06-6-3.25-8.89-14.54-47.88 1.46-93.23 38.9-110.26 19.72-9 37.63-7.09 54.8 5.75 18.17 13.6 20.68 34.51 15.13 49.2-4.2 11.09-12.33 18.23-22 19.93a15.63 15.63 0 0 0 .59-17.78c-9.83-19.74-25.52-28.78-43.05-24.81-21.88 5-40.69 29.18-41.09 52.93-.44 26.1 20 46.49 56.07 55.95a72 72 0 0 0 18.22 2.42c23.06 0 41-12 55.39-24.27-2.5 4.17-4.71 8.44-7 12.8a217.63 217.63 0 0 1-8.71 15.76c-26.16 42-71.74 73.49-119 82.1-34.62 6.33-68.29 0-98.36-18.22 28.62 10.48 57.52 6.38 79.24-11.77a76.19 76.19 0 0 0 24.12-80.84zm58.37-53.62a11.73 11.73 0 1 1 11.73 11.39 11.57 11.57 0 0 1-11.73-11.39zm-199.78-136c42.66-63.83 112-101.07 180.88-97.23 5.57.31 10.92.89 16.09 1.66-27 6.38-51.5 21.25-70.72 43.56-35.62 41.35-46.11 100.3-28.9 161.74 4.39 15.64 12.61 29.47 20.57 42.86 5.89 9.91 11.48 19.41 15.64 29.48v.05a98.24 98.24 0 0 1 3.25 8.89 71.39 71.39 0 0 1-22.54 75.75c-23.18 19.38-55.24 21.63-85.77 6-16.18-12.09-26.7-26.45-31.28-42.66-9.74-34.5 3.72-64.53 36.92-82.4 19.71-10.62 40.37-11 58.17-1s30.21 29.06 31.24 47.64c.92 16.9-8.82 31.63-25.44 38.42-6 2.44-17.39 5.6-27.08-.64-4.47-2.87-11.44-10.82-12.35-17.7a7.47 7.47 0 0 1 1.72-6.35c2.94-3.24 6.68-3.34 8.86-1.74 2.52 1.85 2.62 5.51.26 9.55-.33.57-1 1.51-1.93 1.48a2.19 2.19 0 0 1-1.73-1.4c-.34-.72-.93-2.71 1.14-5.46l-3.83-2.89c-2.52 3.36-3.13 7.24-1.64 10.4a6.9 6.9 0 0 0 5.85 4.13c2.44.17 4.77-1.29 6.28-3.85 4.43-7.59 1.92-13.26-1.57-15.82-3.92-2.86-10.4-3-15.24 2.38a12.28 12.28 0 0 0-2.92 10.18c1.17 8.8 9.35 17.8 14.51 21.12 8.4 5.41 19.87 5.79 31.48 1.05 18.56-7.59 29.45-24.11 28.41-43.13-1.11-20.16-14.64-40.87-33.68-51.55-19.28-10.81-41.58-10.47-62.78 1-35.35 19-49.66 51.09-39.25 87.93A75.55 75.55 0 0 0 64 375.29 129.48 129.48 0 0 1 43.23 344C8.92 272.65 15.52 189.57 60.86 121.73zm381.73 282.48c-54.89 66.39-147.7 101.73-230.91 88-60-9.92-106.41-44-132.86-96.57 1 .82 2 1.65 3.08 2.47 27 20.67 57.53 31.25 89.42 31.25a150.5 150.5 0 0 0 26.88-2.46c48.51-8.87 95.31-41.16 122.17-84.28 3.44-5.53 6.21-10.9 8.9-16.1 5.48-10.63 10.66-20.67 20.53-29.82a83.28 83.28 0 0 1 11.45-8.91 13.51 13.51 0 0 1 2.16-.66l-.1-.53a67.17 67.17 0 0 1 75.06 3.53C459.47 305.72 477 338.64 457 380c-10.73 15.09-23.35 24.92-37.51 29.17-30.41 9.16-57-3-73.07-33.34-10.34-19.56-10.6-40.91-.71-58.59 8.41-15 23.3-25.32 37.94-26.26 14.82-.93 27.91 7.87 34 23 2.19 5.44 5.05 15.92-.38 24.83-2.52 4.11-9.49 10.55-15.51 11.38a6.11 6.11 0 0 1-5.32-1.49c-2.89-2.65-2.92-6.15-1.48-8.07 1.59-2.1 4.57-2.15 8-.12.48.29 1.28.88 1.24 1.65a1.86 1.86 0 0 1-1.17 1.46c-1.24.58-2.87.21-4.46-1l-2.92 3.8c3.05 2.33 6.47 2.92 9.37 1.58a6.33 6.33 0 0 0 .4-11.57c-6.77-4.06-11.91-1.8-14.27 1.35-2.69 3.6-2.87 9.89 2.07 14.47a10.87 10.87 0 0 0 9.23 2.7c7.91-1.1 16-8.78 18.94-13.64 4.83-7.91 5.09-18.25.73-29.1-6.9-17.15-21.78-27.1-38.76-26-16.47 1.06-32.49 12.06-41.81 28.71-10.69 19.1-10.46 42.14.66 63.17 17.21 32.55 45.88 45.56 78.68 35.68a68 68 0 0 0 25.6-14.77 96.2 96.2 0 0 1-3.9 5.19zM473.82 354c-1.49 3.35-3 6.33-4.46 9.15 7-29 1.34-66.91-15.63-99.36-24.06-46-67.66-77-122.75-87.34-10.51-2-20.46-2.9-30.09-3.81-27.85-2.64-51.9-4.92-74.11-31-23.19-27.27-21.53-50.75-16-65.67C219.36 52.53 244 33.71 272 29c34.27 8.53 57.51 28.32 66.54 57.5 8.39 27.11 3.61 49.69-13.45 63.57-18.59 15.09-50.12 17.53-71.77 5.55-15.67-8.68-23.1-23.07-20.93-40.54s9.19-28.27 20.33-31.37 24.19 2.68 29.81 9.84c1.67 2.13 4.15 6.28 2 10.17a5 5 0 0 1-3.42 2.42 8.32 8.32 0 0 1-6.48-1.49 11.12 11.12 0 0 1-1.57-1.37 11 11 0 0 0 6.29 2.55c2.29 0 4.82-1.52 5-5.59.17-3.24-2.35-6.24-6.25-7.59s-7.89-.42-9.94 2.46c-3 4.25-1.57 9.62 3.65 13.38a13.1 13.1 0 0 0 10.31 2.3 9.85 9.85 0 0 0 6.58-4.79c2.57-4.61 1.71-10.25-2.39-15.47-6.71-8.53-21.58-15.15-34.87-11.47-9.17 2.55-20.74 10.77-23.8 35.39-2.42 19.54 5.88 35.62 23.37 45.31 23.63 13.1 56.78 10.5 77.11-6 18.68-15.18 24-39.57 15-68.68-8.55-27.66-29-47.31-59-57.54a131.37 131.37 0 0 1 20.72.92c92.8 11.7 157 75.81 180.86 180.53C497.56 261 493.56 309.8 473.82 354zM276.09 100.21l-4.63.35a3.22 3.22 0 0 1 .6-2.66c1-1.35 2.94-1.27 4.46-.73 1.88.66 3.1 2 3.06 2.78a3.76 3.76 0 0 1-.18 1c-.7.2-3-.94-3.64-1.72a1.8 1.8 0 0 1 .33.98z"/></svg>
