<svg xmlns="http://www.w3.org/2000/svg" viewBox="0 0 152 122"><path fill="#1d1d1b" d="M9.86 111c-.23-.12-.24-.18-.24-.62 0-.8.06-1.44.08-1.7s0-.25.12-.25.12.05.12.17a3.45 3.45 0 0 0 0 .6 2.19 2.19 0 0 0 2.38 1.63 2.14 2.14 0 0 0 2.3-2.13c0-1.11-.47-1.75-1.85-2.89l-.72-.59c-1.7-1.4-2.09-2.39-2.09-3.49 0-1.71 1.28-2.88 3.32-2.88a6.14 6.14 0 0 1 1.5.16 2.86 2.86 0 0 0 .56.08c.13 0 .16 0 .16.11s-.07.61-.07 1.7c0 .26 0 .37-.11.37s-.11-.08-.13-.21a2.56 2.56 0 0 0-.21-.8c-.09-.18-.53-.85-2-.85a1.83 1.83 0 0 0-2 1.86c0 .92.42 1.49 2 2.7l.45.35c1.9 1.49 2.34 2.49 2.34 3.77a3.29 3.29 0 0 1-1.36 2.66 4.17 4.17 0 0 1-2.42.68 4.84 4.84 0 0 1-2.13-.43zm12.48-11.5c.19-.53.26-.62.35-.62s.16.08.36.57 2.76 7.24 3.74 9.68c.57 1.43 1 1.69 1.38 1.78a2.09 2.09 0 0 0 .64.1c.09 0 .16 0 .16.1s-.15.12-.32.12h-2.52c-.31 0-.48 0-.48-.11s0-.1.11-.11.19-.18.1-.44l-1.5-3.94a.13.13 0 0 0-.14-.1h-3.45a.17.17 0 0 0-.16.13l-1 2.84a3.45 3.45 0 0 0-.22 1.07c0 .32.34.47.61.47h.16c.11 0 .16 0 .16.1s-.1.12-.24.12H17.01c-.2 0-.3 0-.3-.12s.06-.1.14-.1h.47c.74-.1 1.06-.71 1.35-1.51zm1.66 6.42c.08 0 .08 0 .06-.11l-1.52-4.33q-.12-.36-.24 0l-1.41 4.33v.11zm7.68 3.13c0 1.32.2 1.73.63 1.86a3.56 3.56 0 0 0 .8.1c.08 0 .13 0 .13.1s-.1.12-.29.12h-3.24c-.16 0-.26 0-.26-.12s.05-.1.13-.1a2.34 2.34 0 0 0 .66-.1c.4-.11.48-.57.48-2v-9.2c0-.63.05-.8.17-.8s.41.35.57.51 2.63 2.86 5.1 5.51c1.59 1.7 3.34 3.65 3.85 4.18l-.18-8.15c0-1-.12-1.4-.62-1.52a3.84 3.84 0 0 0-.79-.08c-.11 0-.13 0-.13-.12s.13-.11.32-.11c.73 0 1.5.05 1.67.05s.71-.05 1.37-.05c.17 0 .29 0 .29.11s-.07.12-.18.12a1.64 1.64 0 0 0-.38 0c-.53.12-.6.47-.6 1.43v9.41c0 1.06 0 1.14-.14 1.14s-.33-.18-1.18-1c-.17-.16-2.48-2.52-4.19-4.35-1.86-2-3.67-4-4.18-4.61zm22.15-1.91c0-1.3-.08-1.48-.72-1.65a3.21 3.21 0 0 0-.55 0c-.06 0-.13 0-.13-.1s.08-.12.26-.12h3.39c.17 0 .25 0 .25.12s-.06.1-.13.1a2.83 2.83 0 0 0-.4 0c-.43.08-.56.35-.59.91s0 1 0 1.67v1.8c0 .72 0 .75-.21.87a8.76 8.76 0 0 1-8.69-1 6.3 6.3 0 0 1-1.9-4.57 6.08 6.08 0 0 1 2.68-5.28 7.84 7.84 0 0 1 4.26-1 14.12 14.12 0 0 1 2.46.27 8.56 8.56 0 0 0 1.3.16c.16 0 .19.08.19.14a21 21 0 0 0-.11 2.28c0 .26 0 .34-.14.34s-.1-.1-.12-.24a2.37 2.37 0 0 0-.33-1.06c-.4-.61-1.7-1.3-3.77-1.3a4.59 4.59 0 0 0-5 5.13 6.54 6.54 0 0 0 1.7 4.45 5.84 5.84 0 0 0 4.21 1.72 4.4 4.4 0 0 0 1.83-.34.58.58 0 0 0 .32-.56zm15.9-.56c0 1.54 0 2.81.08 3.48.05.47.14.82.63.88a5.26 5.26 0 0 0 .72.07c.09 0 .13 0 .13.1s-.08.12-.26.12h-3.58c-.17 0-.25 0-.25-.12s0-.1.13-.1a2.06 2.06 0 0 0 .48-.07c.32-.06.4-.41.46-.88.08-.67.08-1.94.08-3.48v-1.68a.09.09 0 0 0-.09-.1h-6.77c-.05 0-.1 0-.1.1v1.68c0 1.54 0 2.81.08 3.48.05.47.15.82.63.88a5.56 5.56 0 0 0 .72.07c.1 0 .13 0 .13.1s-.08.12-.26.12H59.12c-.18 0-.26 0-.26-.12s0-.1.13-.1a2 2 0 0 0 .48-.07c.32-.06.4-.41.47-.88.08-.67.08-1.94.08-3.48v-2.83-3.46c0-.46-.16-.8-.69-.92a3.12 3.12 0 0 0-.54 0c-.07 0-.13 0-.13-.1s.08-.13.26-.13c.72 0 1.73.05 1.81.05s1.09-.05 1.57-.05c.18 0 .26 0 .26.13s-.06.1-.13.1a2.41 2.41 0 0 0-.4 0c-.43.08-.56.36-.59.92s0 1 0 3.46v.34a.09.09 0 0 0 .1.1h6.76s.09 0 .09-.1v-.34-3.46c0-.46-.16-.8-.69-.92a3.24 3.24 0 0 0-.55 0 .11.11 0 0 1-.12-.1c0-.1.08-.13.25-.13.72 0 1.74.05 1.82.05s1.09-.05 1.57-.05c.18 0 .26 0 .26.13s-.07.1-.13.1a2.31 2.31 0 0 0-.4 0c-.44.08-.57.36-.6.92s0 1 0 3.46zm8-7.08c.19-.53.26-.62.35-.62s.16.08.36.57 2.76 7.24 3.74 9.68c.57 1.43 1 1.69 1.38 1.78a2.09 2.09 0 0 0 .64.1c.1 0 .16 0 .16.1s-.15.12-.32.12h-2.52c-.31 0-.48 0-.48-.11s0-.1.11-.11.19-.18.1-.44l-1.5-3.94a.13.13 0 0 0-.14-.1h-3.42a.17.17 0 0 0-.16.13l-1 2.84a3.45 3.45 0 0 0-.22 1.07c0 .32.34.47.61.47h.16c.11 0 .16 0 .16.1s-.1.12-.24.12H72.43c-.2 0-.3 0-.3-.12s.06-.1.14-.1h.47c.74-.1 1.06-.71 1.35-1.51zm1.67 6.42c.08 0 .08 0 .06-.11L78 101.48q-.12-.36-.24 0l-1.41 4.33v.11zm19.6 3.24c.07.58.18 1.48.87 1.7a3.33 3.33 0 0 0 1 .15c.08 0 .13 0 .13.08s-.14.14-.34.14-2.08 0-2.68-.09c-.37 0-.45-.08-.45-.16s0-.1.12-.12.09-.28.06-.57L97 102l-4 8.35c-.34.71-.38.85-.53.85s-.19-.16-.5-.74c-.41-.78-1.79-3.56-1.87-3.72s-2-4.14-2.12-4.57h-.07l-.64 7.44v.82a.52.52 0 0 0 .42.5 3.32 3.32 0 0 0 .61.08c.07 0 .13 0 .13.08s-.1.14-.29.14H85.3c-.16 0-.27 0-.27-.14s.08-.08.16-.08a2 2 0 0 0 .48-.05c.53-.1.58-.72.64-1.33l1.16-10.47c0-.17.08-.28.17-.28s.16.06.25.24l4.91 10.09 4.71-10.08c.07-.14.13-.25.24-.25s.17.12.2.43zm6.26-2.58c0 1.54 0 2.81.08 3.48 0 .47.14.82.62.88a5.54 5.54 0 0 0 .73.07c.09 0 .12 0 .12.1s-.08.12-.25.12H102.99c-.18 0-.26 0-.26-.12s0-.1.13-.1a1.92 1.92 0 0 0 .48-.07c.33-.06.41-.41.47-.88.08-.67.08-1.94.08-3.48v-2.83-3.46c0-.46-.19-.82-.55-.9a1.93 1.93 0 0 0-.5-.06.11.11 0 0 1-.12-.1c0-.1.08-.13.25-.13.53 0 1.54.05 1.62.05s1.1-.05 1.58-.05c.17 0 .25 0 .25.13a.11.11 0 0 1-.12.1 2.51 2.51 0 0 0-.41 0c-.43.08-.56.36-.59.92s0 1 0 3.46zm9.13 0c0 1.54 0 2.81.08 3.48.05.47.14.82.62.88a5.54 5.54 0 0 0 .73.07c.09 0 .12 0 .12.1s-.08.12-.25.12H112.12c-.18 0-.26 0-.26-.12s0-.1.13-.1a1.92 1.92 0 0 0 .48-.07c.33-.06.41-.41.47-.88.08-.67.08-1.94.08-3.48v-6.79h-2.37c-1 0-1.39.13-1.64.52a2.56 2.56 0 0 0-.28.5c0 .12-.09.16-.16.16s-.08 0-.08-.15.32-1.54.36-1.67.09-.3.16-.3a2.87 2.87 0 0 0 .7.19c.47.05 1.08.08 1.27.08h6a6.31 6.31 0 0 0 1.14-.08c.24 0 .38-.08.45-.08s.08.1.08.19v1.77c0 .18 0 .21-.11.21s-.11 0-.13-.28v-.17c0-.48-.43-.86-2-.89h-2zm7.67-2.83v-3.46c0-.46-.17-.8-.7-.92a3.12 3.12 0 0 0-.54 0c-.06 0-.13 0-.13-.1s.08-.13.26-.13c.72 0 1.73.05 1.81.05s1.4-.05 1.9-.05a4.92 4.92 0 0 1 2.93.71 2.8 2.8 0 0 1 1.11 2.18 5 5 0 0 1-1.94 3.71c1.31 1.68 2.4 3.11 3.33 4.11a3.32 3.32 0 0 0 2 1.15 3.76 3.76 0 0 0 .63.05c.08 0 .14 0 .14.1s-.09.12-.38.12h-1.14a3.34 3.34 0 0 1-1.72-.3 8.53 8.53 0 0 1-2.17-2.36c-.67-.88-1.42-2-1.74-2.38a.29.29 0 0 0-.21-.09h-2c-.08 0-.11 0-.11.12v.39c0 1.54 0 2.81.08 3.48 0 .47.15.82.63.88a5.4 5.4 0 0 0 .72.07c.1 0 .13 0 .13.1s-.08.12-.26.12h-3.51c-.18 0-.26 0-.26-.12s0-.1.13-.1a2 2 0 0 0 .48-.07c.32-.06.4-.41.47-.88.08-.67.08-1.94.08-3.48zm1.28 1.4a.2.2 0 0 0 .11.19 4.31 4.31 0 0 0 1.69.26 2.13 2.13 0 0 0 1.2-.3 3 3 0 0 0 1-2.48c0-2-1.06-3.21-2.78-3.21a4.62 4.62 0 0 0-1.07.1.2.2 0 0 0-.13.19zm13.21-5.65c.19-.53.25-.62.35-.62s.16.08.35.57 2.76 7.24 3.74 9.68c.58 1.43 1 1.69 1.38 1.78a2.09 2.09 0 0 0 .64.1c.1 0 .16 0 .16.1s-.14.12-.32.12h-2.52c-.3 0-.48 0-.48-.11a.12.12 0 0 1 .15-.12c.1 0 .2-.18.1-.44l-1.49-3.94a.14.14 0 0 0-.15-.1H135a.17.17 0 0 0-.16.13l-1 2.84a3.5 3.5 0 0 0-.23 1.07c0 .32.34.47.61.47h.16c.12 0 .17 0 .17.1s-.1.12-.24.12H131.24c-.21 0-.31 0-.31-.12s.07-.1.15-.1h.46c.74-.1 1.06-.71 1.35-1.51zm1.66 6.42c.08 0 .08 0 .07-.11l-1.53-4.33q-.12-.36-.24 0l-1.41 4.33v.11zM76.4 8.42a41.44 41.44 0 1 0 41.44 41.43A41.48 41.48 0 0 0 76.4 8.42zm0 82.09a40.66 40.66 0 1 1 40.66-40.66A40.7 40.7 0 0 1 76.4 90.51zm37.94-48.44c-3.93-17.29-14.56-27.88-29.93-29.82a21.71 21.71 0 0 0-5.58 0 26.93 26.93 0 0 0-4.69-.65c-11.43-.64-22.91 5.52-30 16.08a36.81 36.81 0 0 0-2.91 36.74 21.44 21.44 0 0 0 5 6.8A29.28 29.28 0 0 0 69.1 88.84a36.55 36.55 0 0 0 6 .49 42.56 42.56 0 0 0 32.09-15 18.81 18.81 0 0 0 2.36-3.65 19.09 19.09 0 0 0 2.82-4.68 37.31 37.31 0 0 0 1.97-23.93zM71.09 31.85A13.24 13.24 0 0 0 76 35.59a12.16 12.16 0 0 0 4 2c3.63 1.4 8.14 3.13 9.69 7.62 1.3 3.76.55 8.49-1.78 11.24a7.15 7.15 0 0 1-11.32-.94 4.39 4.39 0 0 1 .28-3.9 2.68 2.68 0 0 0 3.33.82 5.41 5.41 0 0 0 5.3-3.79 7.63 7.63 0 0 0-2.71-8.85 8.92 8.92 0 0 0-9.65-1c-5.59 2.54-8.4 8.71-7.42 15.63-.38-.69-.77-1.36-1.17-2a29 29 0 0 1-3.25-6.75c-2.72-9.69-1.07-19 4.52-25.46a21.52 21.52 0 0 1 7-5.4 12.24 12.24 0 0 0-4.52 5.64c-.91 2.61-1.21 6.7 2.79 11.4zM93 54.33a14 14 0 0 0-3.18 2.44c-3 2.7-7 6.39-12.88 4.85-7.48-2-8.53-6-8.49-8.29.06-3.51 2.83-7.1 6.05-7.83a4.89 4.89 0 0 1 5.15 2.09 3.4 3.4 0 0 0-.64-.08 2.65 2.65 0 0 0-2.67 2.62 2.54 2.54 0 0 0 .1.68 5.31 5.31 0 0 0-.58 5.07 7.28 7.28 0 0 0 5.55 3.66 9.46 9.46 0 0 0 1.46.12A7.2 7.2 0 0 0 88.53 57c2.49-3 3.3-8 1.91-12-1.66-4.84-6.57-6.72-10.14-8.09l-.69-.27c1.28.23 2.6.36 4 .49 1.54.15 3.13.3 4.8.61 8.68 1.62 15.54 6.5 19.32 13.73a25.67 25.67 0 0 1 2.77 8.84 12 12 0 0 0-4.1-5.57 11.66 11.66 0 0 0-13.4-.41zm-25.29 4.48c-.15-.49-.34-1-.53-1.44-2.35-7.75.24-15.09 6.3-17.85a8.13 8.13 0 0 1 8.87.94 6.87 6.87 0 0 1 2.45 8 4.78 4.78 0 0 1-3.57 3.22 2.52 2.52 0 0 0 .1-2.87c-1.59-3.19-4.13-4.65-7-4-3.54.8-6.58 4.72-6.65 8.57-.07 4.22 3.24 7.52 9.08 9a11.69 11.69 0 0 0 2.95.39c3.73 0 6.63-1.95 9-3.93-.4.68-.76 1.37-1.12 2.08s-.87 1.68-1.41 2.55a29.82 29.82 0 0 1-19.27 13.28A22.4 22.4 0 0 1 51 73.8a12.71 12.71 0 0 0 12.83-1.91 12.34 12.34 0 0 0 3.88-13.08zm9.45-8.68A1.9 1.9 0 1 1 79.05 52a1.87 1.87 0 0 1-1.89-1.87zm-32.34-22c6.9-10.33 18.12-16.36 29.28-15.74.9 0 1.76.15 2.6.27a21.72 21.72 0 0 0-11.45 7c-5.76 6.69-7.47 16.23-4.67 26.18a29.23 29.23 0 0 0 3.33 6.94 38.51 38.51 0 0 1 2.53 4.77A13.71 13.71 0 0 1 67 59a11.57 11.57 0 0 1-3.68 12.3c-3.75 3.13-8.94 3.5-13.88 1a13.11 13.11 0 0 1-5.07-6.9c-1.57-5.59.6-10.45 6-13.34a9.47 9.47 0 0 1 9.41-.16 9.94 9.94 0 0 1 5.06 7.71 6.28 6.28 0 0 1-4.14 6.19 4.83 4.83 0 0 1-4.38-.1 5 5 0 0 1-2-2.87 1.21 1.21 0 0 1 .28-1 1.08 1.08 0 0 1 1.4-.31c.41.3.43.89 0 1.55-.06.09-.16.24-.32.24a.37.37 0 0 1-.28-.23.84.84 0 0 1 .19-.88l-.62-.47a1.63 1.63 0 0 0-.27 1.68 1.07 1.07 0 0 0 2 .05 1.75 1.75 0 1 0-2.7-2.18 2 2 0 0 0-.47 1.65 5.72 5.72 0 0 0 2.35 3.42 5.53 5.53 0 0 0 5.1.17 7 7 0 0 0 4.59-7 10.74 10.74 0 0 0-5.45-8.35 10.24 10.24 0 0 0-10.12.18c-5.72 3.08-8 8.27-6.35 14.23a12 12 0 0 0 1.7 3.58A20.89 20.89 0 0 1 42 64.09a36 36 0 0 1 2.82-35.97zm61.79 45.72C97.72 84.59 82.7 90.31 69.23 88.08a28.46 28.46 0 0 1-21.5-15.63l.49.4a23.57 23.57 0 0 0 14.48 5.06 24 24 0 0 0 4.35-.4 30.54 30.54 0 0 0 19.77-13.64c.56-.9 1-1.77 1.44-2.61a16 16 0 0 1 3.33-4.82A13.5 13.5 0 0 1 93.44 55a2.68 2.68 0 0 1 .35-.1v-.09a10.89 10.89 0 0 1 12.15.57c3.42 2.53 6.25 7.86 3 14.56a11.74 11.74 0 0 1-6.07 4.72c-4.93 1.48-9.24-.49-11.83-5.4a9.78 9.78 0 0 1-.12-9.48 8 8 0 0 1 6.14-4.25 5.55 5.55 0 0 1 5.51 3.73 4.59 4.59 0 0 1-.06 4 4.44 4.44 0 0 1-2.51 1.85 1 1 0 0 1-.86-.24 1 1 0 0 1-.24-1.31c.25-.34.74-.35 1.29 0 .08.05.2.14.2.27a.32.32 0 0 1-.19.24.72.72 0 0 1-.72-.17l-.48.6a1.47 1.47 0 0 0 1.52.25 1.06 1.06 0 0 0 .64-.9 1.07 1.07 0 0 0-.57-1 1.65 1.65 0 0 0-2.31.22 1.83 1.83 0 0 0 1.82 2.78 5.16 5.16 0 0 0 3.07-2.21 5.22 5.22 0 0 0 .12-4.71A6.29 6.29 0 0 0 97 54.75a8.71 8.71 0 0 0-6.76 4.64 10.55 10.55 0 0 0 .1 10.23c2.79 5.27 7.43 7.37 12.74 5.77a11 11 0 0 0 4.16-2.39c-.24.29-.41.57-.63.84zm5-8.12c-.24.55-.48 1-.72 1.49 1.13-4.7.22-10.84-2.53-16.09-3.9-7.45-11-12.47-19.87-14.13-1.7-.32-3.31-.47-4.87-.62-4.51-.43-8.4-.8-12-5-3.76-4.41-3.49-8.21-2.6-10.62 1.39-3.8 5.37-6.84 9.92-7.61 5.54 1.38 9.3 4.58 10.77 9.3 1.35 4.39.58 8.05-2.18 10.29A11.08 11.08 0 0 1 76 33.6a6.26 6.26 0 0 1-3.42-6.6c.35-2.82 1.49-4.58 3.3-5.08a5 5 0 0 1 4.82 1.59 1.54 1.54 0 0 1 .3 1.69.77.77 0 0 1-.55.39 1.3 1.3 0 0 1-1-.24 1.9 1.9 0 0 1-.26-.22 1.79 1.79 0 0 0 1 .41.82.82 0 0 0 .81-.9 1.35 1.35 0 0 0-1-1.23 1.39 1.39 0 0 0-1.61.4A1.53 1.53 0 0 0 79 26a2.16 2.16 0 0 0 1.67.37 1.59 1.59 0 0 0 1.07-.77 2.23 2.23 0 0 0-.39-2.5 5.7 5.7 0 0 0-5.64-1.86c-1.49.41-3.36 1.74-3.86 5.72a7 7 0 0 0 3.79 7.34 11.73 11.73 0 0 0 12.48-1c3-2.46 3.88-6.4 2.43-11.12-1.39-4.47-4.7-7.65-9.55-9.31a22.22 22.22 0 0 1 3.35.15c15 1.89 25.42 12.27 29.28 29.22 1.87 8.42 1.23 16.32-1.97 23.48zm-32-41.08l-.75.06a.56.56 0 0 1 .09-.44.64.64 0 0 1 .73-.11c.3.1.5.32.49.45a.5.5 0 0 1 0 .16c-.11 0-.48-.15-.59-.27a.26.26 0 0 1 .08.14z"/></svg>
