<svg xmlns="http://www.w3.org/2000/svg" viewBox="0 0 512 512"><path d="M256 96c-88.2 0-160 71.8-160 160s71.8 160 160 160 160-71.8 160-160S344.2 96 256 96zm0 317c-86.6 0-157-70.4-157-157S169.4 99 256 99s157 70.4 157 157-70.4 157-157 157zm146.5-187.1c-15.2-66.8-56.2-107.7-115.6-115.1-7.2-.9-14.4-.9-21.5 0-6-1.4-12-2.2-18.1-2.5-44.1-2.5-88.5 21.3-115.7 62.1-28.9 43.3-33.1 96.3-11.2 141.9 4.7 9.9 11.2 18.9 19.4 26.2 16.3 37.2 47.4 61.3 88.1 68 7.7 1.3 15.4 1.9 23.2 1.9 46.4 0 94-21.7 123.9-57.9 3.6-4.3 6.6-9.1 9.1-14.1 3.9-4.6 7.3-10 10.8-18 12.6-28.2 15.1-59.3 7.6-92.5zm-167-39.4c6.1 7.2 12.4 11.6 18.9 14.5 3 3.1 8.6 5.2 15.6 7.9 14 5.4 31.4 12.1 37.4 29.4 5 14.5 2.1 32.8-6.9 43.4-4.3 5.1-12.1 10.8-24.6 8.8-9-1.5-16.4-6.2-19.2-12.4-2-4.5-1.6-9.6 1.1-15 3 4 8.4 5.3 12.9 3.1 8.9.5 16.9-5.2 20.5-14.6 3.9-10.2 2.1-24.8-10.5-34.2-11.5-8.6-24.1-9.9-37.3-3.9-21.6 9.8-32.4 33.6-28.6 60.3l-4.5-7.8c-4.9-8.2-9.9-16.7-12.5-26.1-10.5-37.4-4.1-73.3 17.4-98.3 7.5-8.8 16.7-15.9 27.1-20.8-8 5.7-14.3 13.2-17.5 21.8-3.6 9.9-4.8 25.7 10.7 43.9zm84.7 86.8c-3.6 1.6-7.5 5.1-12.3 9.4-11.4 10.4-27.1 24.6-49.7 18.8-28.9-7.6-33-23.3-32.8-32 .2-13.6 10.9-27.4 23.3-30.2 7.7-1.8 14.6 1.2 19.9 8-.8-.2-1.6-.3-2.4-.3-5.6-.1-10.3 4.5-10.3 10.1 0 .9.1 1.8.4 2.6-5.2 8.7-4.1 15.4-2.2 19.6 3.2 7.1 11.4 12.5 21.4 14.1 1.9.3 3.8.5 5.7.5 10.6 0 17.5-5.4 21.7-10.3 9.6-11.4 12.7-30.9 7.4-46.3-6.4-18.7-25.4-25.9-39.2-31.2l-2.7-1c5 .9 10.1 1.4 15.4 1.9 6 .6 12.1 1.1 18.5 2.3 33.5 6.2 60 25.1 74.6 53 5.6 10.6 9.2 22.2 10.7 34.1-3-8.6-8.5-16.1-15.8-21.5-13.2-9.8-33.4-13.3-51.6-1.6zm-97.8 17.3c-.6-1.9-1.3-3.8-2-5.6-9.1-29.9.9-58.3 24.3-68.9 12.3-5.6 23.5-4.4 34.2 3.6 11.4 8.5 12.9 21.6 9.5 30.8-2.6 6.9-7.7 11.4-13.8 12.5 2.4-3.3 2.6-7.7.4-11.1-6.1-12.3-15.9-18-26.9-15.5-13.7 3.1-25.4 18.2-25.7 33.1-.3 16.3 12.5 29.1 35 35 3.7 1 7.5 1.5 11.4 1.5 14.4 0 25.6-7.5 34.6-15.2-1.6 2.6-2.9 5.3-4.4 8-1.7 3.4-3.5 6.6-5.4 9.9-16.4 26.2-44.8 45.9-74.4 51.3-21.6 4-42.7 0-61.5-11.4 17.9 6.5 35.9 4 49.5-7.4 14.9-12.4 20.8-32.3 15.2-50.6zm36.5-33.5c-.1-4 3.1-7.4 7.1-7.5s7.4 3.1 7.5 7.1c.1 4-3.1 7.4-7.1 7.5h-.2c-4 0-7.2-3.1-7.3-7.1zm-124.9-85c26.7-39.9 70-63.2 113.1-60.8 3.5.2 6.8.6 10.1 1-16.9 4-32.2 13.3-44.2 27.2-22.3 25.8-28.8 62.7-18.1 101.1 2.7 9.8 7.9 18.4 12.9 26.8 3.7 6.2 7.2 12.1 9.8 18.4.8 1.8 1.4 3.7 2 5.6 5.3 17.2-.3 35.8-14.1 47.3-14.5 12.1-34.5 13.5-53.6 3.8-10.1-7.6-16.7-16.5-19.6-26.7-6.1-21.6 2.3-40.3 23.1-51.5 12.3-6.6 25.2-6.9 36.4-.6s18.9 18.2 19.5 29.8c.6 10.6-5.5 19.8-15.9 24-3.8 1.5-10.9 3.5-16.9-.4-2.8-1.8-7.1-6.8-7.7-11.1-.3-1.4.1-2.9 1.1-4 1.8-2 4.2-2.1 5.5-1.1 1.6 1.2 1.6 3.4.2 6-.2.4-.6.9-1.2.9-.5-.1-.9-.4-1.1-.9-.2-.5-.6-1.7.7-3.4l-2.4-1.8c-1.6 2.1-2 4.5-1 6.5.6 1.5 2.1 2.5 3.7 2.6 1.5.1 3-.8 3.9-2.4 2.8-4.7 1.2-8.3-1-9.9-2.4-1.8-6.5-1.9-9.5 1.5-1.5 1.7-2.2 4.1-1.8 6.4.7 5.5 5.8 11.1 9.1 13.2 5.2 3.4 12.4 3.6 19.7.7 11.6-4.7 18.4-15.1 17.8-27-.7-12.6-9.2-25.5-21.1-32.2-12.1-6.8-26-6.5-39.2.6-22.1 11.9-31 31.9-24.5 55 1.4 4.9 3.6 9.6 6.6 13.8-5.3-5.9-9.6-12.4-13-19.6-21.7-44.5-17.6-96.4 10.7-138.8zm238.6 176.5c-34.3 41.5-92.3 63.6-144.3 55-37.5-6.2-66.5-27.5-83-60.4.6.5 1.2 1 1.9 1.5 16.9 12.9 36 19.5 55.9 19.5 5.6 0 11.3-.5 16.8-1.5 30.3-5.5 59.6-25.7 76.4-52.7 2.1-3.5 3.9-6.8 5.6-10.1 3.4-6.6 6.7-12.9 12.8-18.6 2.2-2.1 4.6-3.9 7.2-5.6.4-.2.9-.3 1.4-.4l-.1-.3c14.6-8.9 33.2-8 46.9 2.2 13.2 9.8 24.1 30.3 11.6 56.2-6.7 9.4-14.6 15.6-23.4 18.2-19 5.7-35.6-1.9-45.7-20.8-6.5-12.2-6.6-25.6-.4-36.6 5.3-9.4 14.6-15.8 23.7-16.4 9.3-.6 17.4 4.9 21.2 14.4 1.4 3.4 3.2 9.9-.2 15.5-1.6 2.6-5.9 6.6-9.7 7.1-1.2.2-2.4-.1-3.3-.9-1.8-1.7-1.8-3.8-.9-5 1-1.3 2.9-1.3 5-.1.3.2.8.6.8 1-.1.4-.3.8-.7.9-.8.4-1.8.1-2.8-.6l-1.8 2.4c1.9 1.5 4 1.8 5.9 1 2-.8 3-3.1 2.2-5.1-.4-.9-1.1-1.7-1.9-2.1-4.2-2.5-7.4-1.1-8.9.8-1.7 2.2-1.8 6.2 1.3 9 1.6 1.4 3.7 2.1 5.8 1.7 4.9-.7 10-5.5 11.8-8.5 3-4.9 3.2-11.4.5-18.2-4.3-10.7-13.6-16.9-24.2-16.2-10.3.7-20.3 7.5-26.1 17.9-6.7 11.9-6.5 26.3.4 39.5 10.8 20.3 28.7 28.5 49.2 22.3 5.9-1.9 11.4-5 16-9.2-1.2 1.1-2 2.2-2.9 3.2zm19.5-31.4c-.9 2.1-1.9 4-2.8 5.7 4.4-18.1.8-41.8-9.8-62.1-15-28.8-42.3-48.1-76.7-54.6-6.6-1.2-12.8-1.8-18.8-2.4-17.4-1.7-32.4-3.1-46.3-19.4-14.5-17-13.5-31.7-10-41 5.4-14.6 20.8-26.4 38.3-29.4 21.4 5.3 35.9 17.7 41.6 35.9 5.2 16.9 2.3 31.1-8.4 39.7-11.6 9.4-31.3 11-44.9 3.5-9.8-5.4-14.4-14.4-13.1-25.3 1.4-10.9 5.7-17.7 12.7-19.6s15.1 1.7 18.6 6.1c1 1.3 2.6 3.9 1.2 6.4-.5.8-1.2 1.3-2.1 1.5-1.4.3-2.9-.1-4.1-.9-.4-.3-.7-.5-1-.9 1.1.9 2.5 1.5 3.9 1.6 1.4 0 3-.9 3.1-3.5.1-2-1.5-3.9-3.9-4.7s-4.9-.3-6.2 1.5c-1.9 2.7-1 6 2.3 8.4 1.9 1.4 4.2 1.9 6.4 1.4 1.7-.4 3.2-1.4 4.1-3 1.6-2.9 1.1-6.4-1.5-9.7-4.2-5.3-13.5-9.5-21.8-7.2-5.7 1.6-13 6.7-14.9 22.1-1.5 12.2 3.7 22.3 14.6 28.3 14.8 8.2 35.5 6.6 48.2-3.8 11.7-9.5 15-24.7 9.4-42.9-5.3-17.3-18.1-29.6-36.9-36 4.3-.1 8.7 0 12.9.6 58 7.3 98.1 47.4 113 112.8 7.8 32.8 5.3 63.3-7.1 90.9zM268.6 158.6l-2.9.2c-.1-.6 0-1.2.4-1.7.6-.8 1.8-.8 2.8-.5 1.2.4 1.9 1.2 1.9 1.7 0 .2 0 .4-.1.6-.4.1-1.9-.6-2.3-1.1.1.4.1.6.2.8z"/></svg>
