<svg xmlns="http://www.w3.org/2000/svg" width="359.722" height="263.654" viewBox="0 0 269.789 197.744"><defs><style>.a{fill:#fff}.b{fill:#004a98}.c{fill:#231f20}</style></defs><path class="a" d="M268.258 178.541a17.88 17.88 0 0 1-18.082 17.672H19.613a17.879 17.879 0 0 1-18.08-17.672V19.206a17.88 17.88 0 0 1 18.08-17.673h230.563a17.88 17.88 0 0 1 18.082 17.673z"/><path class="b" d="M3.064 19.206v159.335a16.359 16.359 0 0 0 16.55 16.137h230.56a16.359 16.359 0 0 0 16.55-16.137V19.206a16.358 16.358 0 0 0-16.55-16.14H19.614a16.358 16.358 0 0 0-16.55 16.14m16.55 178.538A19.424 19.424 0 0 1 0 178.541V19.206A19.425 19.425 0 0 1 19.613 0h230.561a19.427 19.427 0 0 1 19.616 19.206v159.335a19.426 19.426 0 0 1-19.615 19.203z"/><path class="c" d="M30.798 142.107c0 3.739 2.673 4.174 5.051 4.174 10.49 0 13.932-7.912 13.932-15.145 0-9.08-5.825-15.632-15.194-15.632-1.995 0-2.913.142-3.789.194zm-4.758-22.771c0-4.366-2.28-4.08-4.462-4.125v-1.262c1.892.092 3.832.092 5.729.092 2.038 0 4.805-.092 8.4-.092 12.571 0 19.42 8.395 19.42 16.992 0 4.811-2.817 16.897-20.005 16.897-2.473 0-4.759-.096-7.04-.096-2.182 0-4.323.045-6.505.096v-1.263c2.91-.294 4.323-.39 4.463-3.69zM62.021 118.173a2.38 2.38 0 0 1 0-4.762 2.377 2.377 0 0 1 2.38 2.335 2.425 2.425 0 0 1-2.38 2.427m-5.194 28.402h.92c1.359 0 2.331 0 2.331-1.606v-13.155c0-2.134-.727-2.43-2.526-3.397v-.775c2.282-.686 5.003-1.602 5.195-1.748a1.717 1.717 0 0 1 .876-.247c.238 0 .338.292.338.684v18.638c0 1.606 1.07 1.606 2.431 1.606h.822v1.263c-1.65 0-3.353-.096-5.095-.096-1.748 0-3.497.045-5.292.096zM71.828 132.106c0-1.794-.536-2.279-2.814-3.203v-.921a65.888 65.888 0 0 0 6.406-2.334c.147 0 .288.096.288.484v3.157c2.772-1.987 5.151-3.641 8.41-3.641 4.12 0 5.576 3.01 5.576 6.797v12.524c0 1.606 1.071 1.606 2.429 1.606h.876v1.263c-1.705 0-3.402-.096-5.148-.096-1.749 0-3.498.045-5.246.096v-1.263h.876c1.36 0 2.327 0 2.327-1.606V132.4c0-2.771-1.69-4.129-4.462-4.129-1.555 0-4.031 1.26-5.638 2.332v14.365c0 1.607 1.073 1.607 2.433 1.607h.872v1.263c-1.698 0-3.398-.096-5.149-.096-1.744 0-3.494.045-5.24.096v-1.263h.876c1.358 0 2.328 0 2.328-1.607zM105.286 132.884c1.21 0 1.353-.632 1.353-1.217 0-2.472-1.504-4.463-4.224-4.463-2.96 0-4.999 2.18-5.582 5.68zm-8.597 1.556a11.919 11.919 0 0 0 0 2.815c.286 4.612 3.254 8.397 7.134 8.397 2.674 0 4.763-1.457 6.556-3.25l.678.68c-2.234 2.96-5 5.487-8.978 5.487-7.722 0-9.275-7.481-9.275-10.586 0-9.517 6.407-12.335 9.802-12.335 3.937 0 8.164 2.476 8.21 7.623a5.584 5.584 0 0 1-.046.876l-.44.293zM111.934 146.575h1.312c1.354 0 2.326 0 2.326-1.606v-13.64c0-1.502-1.795-1.798-2.524-2.187v-.725c3.544-1.506 5.487-2.77 5.93-2.77.285 0 .43.145.43.633v4.37h.103c1.21-1.893 3.252-5.003 6.212-5.003a2.647 2.647 0 0 1 2.766 2.573 2.357 2.357 0 0 1-2.277 2.481c-1.51 0-1.51-1.17-3.21-1.17a4.104 4.104 0 0 0-3.545 4.035v11.402c0 1.606.97 1.606 2.33 1.606h2.717v1.263c-2.67-.05-4.703-.096-6.792-.096-1.992 0-4.032.045-5.779.096zM130.624 141.087c.633 3.204 2.571 5.927 6.122 5.927 2.86 0 3.927-1.75 3.927-3.448 0-5.732-10.58-3.885-10.58-11.7 0-2.723 2.185-6.218 7.526-6.218a12.754 12.754 0 0 1 5.53 1.412l.34 4.948h-1.116c-.484-3.057-2.181-4.804-5.293-4.804-1.942 0-3.784 1.115-3.784 3.203 0 5.684 11.26 3.933 11.26 11.556 0 3.202-2.57 6.605-8.35 6.605a12.768 12.768 0 0 1-5.92-1.652l-.537-5.584zM188.398 122.734h-1.211c-.924-5.675-4.954-7.96-10.388-7.96-5.59 0-13.695 3.736-13.695 15.388 0 9.81 6.994 16.852 14.469 16.852a9.876 9.876 0 0 0 9.761-8.404l1.117.29-1.117 7.091c-2.039 1.264-7.527 2.577-10.735 2.577-11.356 0-18.54-7.333-18.54-18.257 0-9.955 8.884-17.094 18.4-17.094 3.931 0 7.717 1.266 11.456 2.578zM190.15 146.575h.92c1.364 0 2.333 0 2.333-1.606v-27.036c0-3.159-.727-3.255-2.574-3.79v-.778a30.758 30.758 0 0 0 5.004-2.089 5.174 5.174 0 0 1 1.062-.535c.297 0 .393.295.393.685v33.543c0 1.606 1.069 1.606 2.427 1.606h.822v1.263c-1.646 0-3.345-.096-5.094-.096-1.747 0-3.493.045-5.292.096zM221.324 145.165c0 .877.53.923 1.354.923.586 0 1.31-.046 1.947-.046v1.022a49.098 49.098 0 0 0-6.996 1.504l-.242-.148v-3.933c-2.91 2.378-5.146 4.081-8.598 4.081-2.62 0-5.338-1.703-5.338-5.776v-12.433c0-1.264-.193-2.478-2.908-2.717v-.925c1.75-.048 5.625-.338 6.258-.338.54 0 .54.338.54 1.408v12.525c0 1.458 0 5.63 4.222 5.63 1.648 0 3.833-1.26 5.871-2.957v-13.064c0-.97-2.33-1.504-4.074-1.987v-.873c4.365-.296 7.087-.682 7.572-.682.392 0 .392.338.392.874zM230.983 142.35a5.225 5.225 0 0 0 5 4.954c5.195 0 7.379-5.099 7.379-9.422 0-5.242-3.977-9.61-7.763-9.61-1.804 0-3.306 1.166-4.616 2.284zm0-13.207c1.941-1.647 4.564-3.495 7.234-3.495 5.633 0 9.031 4.908 9.031 10.199 0 6.358-4.662 12.722-11.608 12.722a14.305 14.305 0 0 1-6.748-1.703l-1.452 1.117-1.018-.533a57.029 57.029 0 0 0 .679-8.643v-20.874c0-3.158-.731-3.255-2.576-3.79v-.777a30.473 30.473 0 0 0 5-2.09 5.228 5.228 0 0 1 1.071-.534c.29 0 .387.296.387.684zM21.523 176.068h.371c.95 0 1.954-.13 1.954-1.506v-13.84c0-1.377-1.004-1.507-1.954-1.507h-.371v-.794c1.03 0 2.615.105 3.913.105 1.32 0 2.903-.105 4.145-.105v.794h-.373c-.946 0-1.952.13-1.952 1.507v13.84c0 1.376 1.006 1.506 1.952 1.506h.373v.794c-1.267 0-2.856-.102-4.172-.102-1.297 0-2.856.102-3.886.102z"/><path class="c" d="M29.467 176.75v-.563h-.254c-.945 0-2.068-.166-2.074-1.625v-13.84c.006-1.46 1.129-1.624 2.074-1.624h.254v-.563c-1.219.001-2.75.106-4.031.106-1.255 0-2.774-.098-3.797-.106v.564h.253c.942 0 2.067.163 2.067 1.624v13.84c0 1.459-1.125 1.624-2.067 1.624h-.253v.562c1.023-.009 2.515-.106 3.768-.106 1.287 0 2.814.1 4.06.106m.114.226c-1.278 0-2.86-.106-4.174-.106-1.293 0-2.847.106-3.884.106h-.115v-1.02h.484c.959-.024 1.83-.101 1.839-1.393v-13.84c-.008-1.293-.88-1.377-1.839-1.393h-.484v-1.024h.115c1.037 0 2.62.104 3.913.104 1.314 0 2.896-.104 4.145-.104h.118v1.024h-.486c-.96.016-1.837.1-1.842 1.393v13.84c.005 1.292.882 1.369 1.842 1.392h.486v1.02zM47.73 171.655l.053-.052v-9.904a2.18 2.18 0 0 0-2.3-2.485H44.9v-.793c1.244 0 2.459.105 3.698.105 1.083 0 2.172-.105 3.25-.105v.793h-.392c-1.113 0-2.355.21-2.355 3.355v12.02a17.558 17.558 0 0 0 .156 2.67h-1.004l-13.603-15.167v10.888c0 2.3.447 3.089 2.481 3.089h.45v.794c-1.136 0-2.27-.104-3.407-.104-1.186 0-2.403.104-3.593.104v-.794h.37c1.823 0 2.377-1.242 2.377-3.35v-11.131a2.37 2.37 0 0 0-2.402-2.374h-.345v-.793c1.002 0 2.034.105 3.035.105.795 0 1.562-.105 2.354-.105z"/><path class="c" d="M47.668 171.603v-.01l-.021-.017zm.063.052l.083-.076zm.524 5.485h.874a17.757 17.757 0 0 1-.14-2.551v-12.02c0-3.17 1.33-3.47 2.468-3.472h.278v-.562c-1.041.008-2.084.104-3.135.104-1.21 0-2.386-.096-3.58-.104l-.003.562h.467a2.312 2.312 0 0 1 2.413 2.602l-.035 9.987-.052.051-.09.085-11.749-13.287c-.785 0-1.549.104-2.355.104-.968 0-1.96-.096-2.918-.104l-.005.562h.235a2.49 2.49 0 0 1 2.514 2.495v11.126c0 2.114-.589 3.464-2.488 3.472l-.256-.008v.567c1.144-.009 2.323-.106 3.477-.106 1.102 0 2.202.097 3.292.106v-.56h-.334c-2.079-.008-2.594-.913-2.596-3.21v-11.183zm1.003.23l-1.088-.037-13.407-14.943v10.59c.032 2.297.381 2.95 2.37 2.975h.566v1.02h-.117c-1.143 0-2.28-.105-3.407-.105-1.183 0-2.397.105-3.594.105h-.116v-1.02h.488c1.746-.01 2.245-1.132 2.264-3.237v-11.126a2.26 2.26 0 0 0-2.29-2.262h-.462v-1.024h.116c1.01 0 2.044.104 3.035.104.788 0 1.551-.104 2.442-.063l11.61 13.07V161.7c-.013-2.099-1.415-2.354-2.184-2.37h-.699v-1.024h.117c1.248 0 2.464.104 3.698.104 1.075 0 2.158-.104 3.25-.104h.116v1.024h-.509c-1.091.028-2.21.124-2.242 3.24v12.02a17.532 17.532 0 0 0 .156 2.649l.024.132zM55.809 159.742c-1.984 0-2.06.478-2.457 2.404h-.793c.104-.74.235-1.479.317-2.245a15.76 15.76 0 0 0 .159-2.244h.633c.213.793.873.764 1.59.764h13.626c.716 0 1.376-.026 1.43-.82l.63.109c-.102.71-.21 1.425-.287 2.14-.051.713-.051 1.425-.051 2.138l-.795.294c-.054-.977-.184-2.54-1.954-2.54h-4.333v14.055c0 2.038.925 2.272 2.191 2.272h.505v.794c-1.03 0-2.88-.103-4.305-.103-1.587 0-3.438.103-4.469.103v-.794h.504c1.456 0 2.192-.13 2.192-2.217v-14.11z"/><path class="c" d="M66.222 176.975c-1.041 0-2.888-.105-4.307-.105-1.585 0-3.433.105-4.47.105h-.112v-1.02h.617c1.456-.035 2.041-.054 2.075-2.103v-13.996h-4.216v-.232h4.444v14.228c0 2.12-.855 2.335-2.303 2.337h-.391v.558c1.042-.007 2.822-.104 4.356-.104 1.375 0 3.14.097 4.186.104v-.557h-.385c-1.278-.003-2.306-.316-2.306-2.393v-14.173h4.447c1.772.007 2.007 1.513 2.062 2.496l.572-.21c0-.69.003-1.382.05-2.076.078-.683.174-1.353.273-2.031l-.401-.067c-.123.769-.868.81-1.53.8H55.12c-.621.001-1.299-.029-1.536-.766h-.436a15.914 15.914 0 0 1-.155 2.143c-.08.726-.2 1.423-.296 2.123h.564c.348-1.842.574-2.438 2.548-2.412v.232c-1.956.038-1.914.365-2.345 2.317l-.019.09h-1.018l.014-.137c.108-.737.242-1.478.319-2.246a14.883 14.883 0 0 0 .16-2.222v-.118h.839l.02.083c.178.666.667.67 1.34.683h13.764c.736-.012 1.272-.022 1.317-.713l.01-.125.119.024.747.118-.02.117c-.104.709-.207 1.42-.286 2.128-.05.707-.05 1.418-.05 2.132v.08l-.077.03-.934.343-.007-.153c-.072-.994-.175-2.432-1.844-2.432H63.64v13.941c.027 1.993.817 2.132 2.076 2.158h.619v1.02zM71.788 176.068h.373c.948 0 1.955-.13 1.955-1.506v-13.84c0-1.377-1.007-1.507-1.955-1.507h-.372v-.794c1.606 0 4.36.105 6.575.105 2.223 0 4.966-.105 6.763-.105a44.44 44.44 0 0 0 .057 4.044l-.796.21c-.127-1.718-.444-3.088-3.22-3.088H77.5v6.917h3.139c1.585 0 1.93-.895 2.087-2.323h.791q-.078 1.548-.08 3.091 0 1.51.08 3.011l-.791.158c-.157-1.583-.236-2.613-2.06-2.613H77.5v6.152c0 1.72 1.527 1.72 3.219 1.72 3.17 0 4.57-.212 5.363-3.22l.737.181c-.344 1.404-.658 2.8-.895 4.202-1.693 0-4.73-.103-7.104-.103-2.383 0-5.524.103-7.032.103z"/><path class="c" d="M85.824 176.747c.231-1.336.532-2.67.856-4l-.52-.13c-.79 2.954-2.324 3.218-5.442 3.199-1.665 0-3.329 0-3.338-1.836v-6.267h3.285c1.845-.019 2.031 1.093 2.163 2.596l.57-.117a55.661 55.661 0 0 1 0-5.9h-.57c-.149 1.38-.58 2.343-2.19 2.327H77.38v-7.152h3.788c2.748-.021 3.203 1.4 3.323 3.063l.569-.156a44.588 44.588 0 0 1-.077-2.584c0-.453.012-.881.027-1.255-1.795.007-4.474.103-6.646.103s-4.843-.096-6.46-.103v.561h.256c.94.002 2.064.165 2.07 1.626v13.84c-.006 1.46-1.13 1.62-2.07 1.627h-.256v.558c1.538-.005 4.592-.105 6.913-.105 2.332 0 5.304.1 7.007.105m.098.227c-1.695 0-4.735-.11-7.105-.11-2.38 0-5.52.11-7.03.11h-.11v-1.02h.483c.956-.016 1.826-.1 1.838-1.392v-13.84c-.012-1.29-.882-1.377-1.838-1.393h-.483v-1.024h.11c1.615 0 4.363.104 6.577.104 2.221 0 4.964-.104 6.763-.104h.117l-.004.122c-.017.396-.028.865-.028 1.363 0 .913.028 1.914.08 2.666l.005.093-.09.028-.928.243-.004-.137c-.156-1.714-.386-2.96-3.107-2.986h-3.56l-.002 6.69h3.032c1.523-.016 1.795-.794 1.975-2.219l.006-.105h1.016l-.002.12a62.182 62.182 0 0 0-.082 3.088c0 1 .03 2.002.082 3.006l.002.096-.096.021-.92.184-.006-.124c-.183-1.613-.195-2.497-1.948-2.516h-3.057v6.041c.004 1.606 1.388 1.597 3.11 1.606 3.182-.019 4.455-.175 5.251-3.138l.027-.107.112.018.846.22-.024.109a60.707 60.707 0 0 0-.897 4.193l-.02.094zM93.768 167.347h1.291c2.645 0 4.069-1.001 4.069-4.12a3.606 3.606 0 0 0-3.86-3.855 13.031 13.031 0 0 0-1.5.107zm-3.38-6.128c0-1.926-1.059-2.005-1.879-2.005h-.477v-.793c.846 0 2.484.105 4.097.105 1.582 0 2.852-.105 4.252-.105 3.324 0 6.289.897 6.289 4.651 0 2.376-1.586 3.827-3.672 4.65l4.515 6.76a2.936 2.936 0 0 0 2.564 1.586v.794c-.874 0-1.72-.102-2.588-.102-.82 0-1.668.102-2.483.102a73.162 73.162 0 0 1-5.497-8.562h-1.741v5.657c0 2.035.95 2.112 2.16 2.112h.479v.794c-1.51 0-3.035-.103-4.544-.103-1.268 0-2.51.103-3.831.103v-.794h.477c.981 0 1.878-.448 1.878-1.424z"/><path class="c" d="M95.059 167.236c2.615-.026 3.933-.933 3.959-4.002a3.5 3.5 0 0 0-3.75-3.75 10.347 10.347 0 0 0-1.387.1v7.652zm-1.292.225h-.117v-8.089l.101-.008a12.543 12.543 0 0 1 1.517-.102 3.731 3.731 0 0 1 3.975 3.972c-.007 3.154-1.519 4.226-4.184 4.227zm0 .725h1.805l.033.06a81.747 81.747 0 0 0 5.4 8.504c.805 0 1.654-.107 2.477-.107.843 0 1.66.093 2.479.104v-.58a3.021 3.021 0 0 1-2.541-1.62l-4.6-6.877.13-.053c2.07-.815 3.603-2.226 3.604-4.549-.001-3.665-2.852-4.515-6.174-4.533-1.39 0-2.66.107-4.251.107-1.552 0-3.12-.099-3.984-.107v.562h.364c.82.002 1.987.138 1.987 2.122v13.426c0 1.06-.993 1.542-1.987 1.544h-.364v.558c1.27-.005 2.476-.104 3.717-.104 1.475 0 2.967.1 4.428.104v-.557h-.362c-1.203-.003-2.278-.151-2.278-2.237v-5.767zm12.31 8.789c-.886 0-1.726-.106-2.595-.106-.805 0-1.65.106-2.57.062a73.917 73.917 0 0 1-5.47-8.512H93.88v5.533c.03 1.99.826 1.974 2.047 2.002h.593v1.02h-.117c-1.51 0-3.045-.105-4.542-.105-1.262 0-2.503.106-3.83.106h-.115v-1.02h.592c.95-.008 1.753-.422 1.757-1.31v-13.426c-.02-1.873-.937-1.864-1.757-1.89h-.592v-1.024h.115c.855 0 2.486.104 4.097.104 1.577 0 2.844-.104 4.252-.104 3.33.008 6.396.925 6.404 4.763 0 2.384-1.576 3.874-3.613 4.705l4.436 6.646a2.837 2.837 0 0 0 2.484 1.535l.096.014v1.006zM124.013 171.655l.046-.052v-9.904a2.177 2.177 0 0 0-2.294-2.485h-.58v-.793c1.243 0 2.454.105 3.699.105 1.086 0 2.16-.105 3.252-.105v.793h-.398c-1.11 0-2.351.21-2.351 3.355v12.02a17.505 17.505 0 0 0 .156 2.67h-1l-13.604-15.167v10.888c0 2.3.446 3.089 2.48 3.089h.45v.794c-1.135 0-2.273-.104-3.408-.104-1.193 0-2.406.104-3.594.104v-.794h.367c1.824 0 2.382-1.242 2.382-3.35v-11.131a2.37 2.37 0 0 0-2.405-2.374h-.344v-.793c1 0 2.038.105 3.04.105.785 0 1.555-.105 2.35-.105z"/><path class="c" d="M123.947 171.603v-.007l-.02-.02zm.063.052l.086-.076zm.532 5.485h.866a18.144 18.144 0 0 1-.14-2.551v-12.02c.003-3.17 1.339-3.464 2.47-3.472h.278v-.562c-1.04.008-2.084.104-3.132.104-1.214 0-2.391-.096-3.586-.104v.562h.467a2.315 2.315 0 0 1 2.414 2.602l-.038 9.987-.048.051-.083.087-11.754-13.289c-.786 0-1.552.104-2.35.104-.98 0-1.967-.096-2.927-.104v.562h.232a2.488 2.488 0 0 1 2.514 2.49v11.125c0 2.12-.597 3.47-2.491 3.478l-.255-.003v.561c1.14-.008 2.318-.105 3.477-.105 1.108 0 2.206.097 3.298.105v-.558h-.335c-2.08-.003-2.597-.91-2.603-3.212V161.8zm1 .23l-1.085-.037-13.41-14.941v10.586c.032 2.301.38 2.95 2.372 2.976h.56v1.02h-.115c-1.142 0-2.276-.109-3.408-.109-1.179 0-2.4.11-3.59.11h-.118v-1.02h.486c1.745-.008 2.245-1.133 2.262-3.243v-11.124a2.252 2.252 0 0 0-2.285-2.259h-.463v-1.023h.118c1.009 0 2.043.103 3.04.103.776 0 1.54-.103 2.428-.07l11.613 13.077V161.7c-.007-2.098-1.414-2.358-2.182-2.37h-.697v-1.023h.115c1.248 0 2.466.103 3.701.103 1.076 0 2.158-.103 3.247-.103h.117v1.023h-.51c-1.09.027-2.213.124-2.24 3.24v12.02a16.647 16.647 0 0 0 .159 2.651l.013.13zM136.24 161.38h-.055l-2.455 7.478h4.936zm-3.857 11.705a10.668 10.668 0 0 0-.585 2.058c0 .796 1.113.926 1.982.926h.295v.793a59.38 59.38 0 0 0-3.202-.102c-.95 0-1.897.045-2.85.102v-.793h.16a2.393 2.393 0 0 0 2.295-1.72l4.227-12.122a22.13 22.13 0 0 0 .982-3.279 13.417 13.417 0 0 0 2.402-1.136.636.636 0 0 1 .21-.053.18.18 0 0 1 .187.083c.078.209.155.447.237.658l4.864 13.82c.316.921.63 1.898.968 2.694a1.686 1.686 0 0 0 1.752 1.055h.159v.793a74.314 74.314 0 0 0-3.645-.102c-1.295 0-2.62.044-3.967.102v-.793h.291c.604 0 1.64-.105 1.64-.766a8.478 8.478 0 0 0-.532-1.904l-1.03-3.063h-5.996z"/><path class="c" d="M136.125 161.415l.06-.02zm-2.24 7.326h4.625l-2.299-7.079zm-.316.23l2.528-7.708h.142v.117l-.027.008.028-.008v-.117h.08l2.51 7.708zm5.4 7.769c1.307-.046 2.59-.098 3.852-.098 1.225 0 2.377.052 3.525.098v-.554h-.039a1.793 1.793 0 0 1-1.853-1.129c-.344-.798-.666-1.778-.977-2.704l-4.864-13.817c-.08-.211-.156-.448-.224-.635-.026-.026-.02-.026-.041-.026h-.05a.584.584 0 0 0-.153.033 9.786 9.786 0 0 1-2.353 1.056 21.862 21.862 0 0 1-.98 3.3l-4.227 12.123a2.516 2.516 0 0 1-2.404 1.8h-.044v.553c.907-.046 1.821-.098 2.738-.098 1.022 0 2.064.052 3.074.098v-.554h-.17c-.862-.011-2.064-.105-2.095-1.042a10.457 10.457 0 0 1 .585-2.092l.113.033-.113-.036.87-2.824h6.161l1.058 3.138a8.033 8.033 0 0 1 .537 1.94c-.04.81-1.152.869-1.75.883h-.176zm7.487.234c-1.186-.05-2.377-.11-3.635-.11-1.295 0-2.613.06-3.961.11l-.122.007v-1.032h.407c.612 0 1.52-.138 1.521-.647a8.396 8.396 0 0 0-.521-1.865l-1.006-2.988h-5.828l-.821 2.67a10.949 10.949 0 0 0-.582 2.025c.008.646.995.805 1.872.805h.405v1.032l-.119-.007c-1.056-.05-2.135-.109-3.19-.109-.945 0-1.9.059-2.845.11l-.123.006v-1.032h.273a2.265 2.265 0 0 0 2.185-1.636l4.23-12.127a30.913 30.913 0 0 0 1.05-3.347 13.63 13.63 0 0 0 2.4-1.133.677.677 0 0 1 .252-.06.324.324 0 0 1 .293.151c.075.217.159.454.239.667l4.864 13.817c.311.925.627 1.9.973 2.684a1.548 1.548 0 0 0 1.64.984h.267v1.033zM147.626 159.742c-1.981 0-2.061.478-2.459 2.404h-.795c.105-.74.24-1.479.322-2.245a16.135 16.135 0 0 0 .154-2.244h.639c.207.793.869.764 1.582.764h13.634c.71 0 1.37-.026 1.422-.82l.632.109c-.098.71-.203 1.425-.286 2.14-.058.713-.058 1.425-.058 2.138l-.79.294c-.046-.977-.18-2.54-1.953-2.54h-4.332v14.055c0 2.038.926 2.272 2.192 2.272h.505v.794c-1.032 0-2.878-.103-4.308-.103-1.582 0-3.437.103-4.466.103v-.794h.503c1.456 0 2.192-.13 2.192-2.217v-14.11z"/><path class="c" d="M158.035 176.975c-1.038 0-2.89-.105-4.31-.105-1.579 0-3.428.105-4.463.105h-.117v-1.02h.619c1.457-.035 2.04-.054 2.076-2.103l-.002-13.996h-4.212v-.232h4.444v14.228c0 2.12-.855 2.33-2.306 2.335h-.39v.562c1.045-.009 2.819-.106 4.35-.106 1.381 0 3.149.097 4.193.106v-.562h-.39c-1.272-.005-2.3-.311-2.303-2.39v-14.173h4.446c1.774.007 2.006 1.513 2.057 2.496l.574-.21c0-.69.004-1.382.057-2.073.072-.68.171-1.357.268-2.031l-.4-.07c-.12.769-.867.812-1.524.8h-13.768c-.623.007-1.297-.029-1.537-.768h-.432a15.545 15.545 0 0 1-.162 2.145c-.072.729-.199 1.428-.3 2.123h.568c.347-1.842.576-2.441 2.555-2.412v.232c-1.959.033-1.916.365-2.347 2.317l-.019.09h-1.02l.017-.13c.11-.744.24-1.485.317-2.247a15.223 15.223 0 0 0 .157-2.228v-.118h.84l.021.083c.185.666.667.67 1.342.683h13.769c.731-.012 1.264-.022 1.311-.711l.004-.127.123.024.75.118-.018.116c-.109.71-.21 1.421-.288 2.13-.055.706-.055 1.418-.055 2.131v.08l-.077.03-.935.343-.004-.153c-.069-.995-.173-2.432-1.843-2.432h-4.22v13.941c.028 1.993.82 2.132 2.078 2.158h.616v1.02zM163.735 176.068h.37c.952 0 1.952-.13 1.952-1.506v-13.84c0-1.377-1-1.507-1.952-1.507h-.37v-.794c1.031 0 2.613.105 3.906.105 1.324 0 2.91-.105 4.154-.105v.794h-.37c-.956 0-1.96.13-1.96 1.507v13.84c0 1.376 1.004 1.506 1.96 1.506h.37v.794c-1.27 0-2.856-.102-4.175-.102-1.297 0-2.854.102-3.885.102z"/><path class="c" d="M171.675 176.747v-.56h-.25c-.948 0-2.07-.165-2.07-1.624v-13.84c0-1.46 1.122-1.624 2.07-1.626h.25v-.562c-1.219.008-2.748.104-4.034.104-1.254 0-2.766-.096-3.79-.104v.562h.255c.938.002 2.064.165 2.067 1.626v13.84c-.003 1.459-1.129 1.624-2.067 1.624h-.256v.56c1.018-.012 2.512-.104 3.77-.104 1.28 0 2.81.097 4.055.104m.12.228c-1.277 0-2.857-.11-4.176-.11-1.293 0-2.852.11-3.884.11h-.114v-1.02h.485c.952-.017 1.83-.1 1.836-1.393v-13.84c-.006-1.29-.884-1.377-1.836-1.393h-.485v-1.024h.114c1.032 0 2.62.104 3.906.104 1.317 0 2.902-.104 4.154-.104h.11v1.024h-.48c-.968.016-1.836.102-1.846 1.393v13.84c.01 1.292.878 1.376 1.846 1.392h.48v1.02zM182.728 176.096c5.127 0 6.02-4.52 6.02-8.373 0-3.86-2.082-8.536-6.47-8.536-4.622 0-5.997 4.123-5.997 7.66 0 4.728 2.168 9.249 6.446 9.249m-.4-18.07c5.634 0 10.122 3.49 10.122 9.117a9.69 9.69 0 0 1-9.984 10.116c-5.604 0-9.881-3.805-9.881-9.485a9.61 9.61 0 0 1 9.744-9.748"/><path class="c" d="M176.166 166.847c.008-3.555 1.395-7.777 6.112-7.777 4.486.01 6.578 4.77 6.587 8.653-.01 3.852-.915 8.481-6.136 8.481v-.223c5.023-.005 5.896-4.406 5.904-8.258 0-3.827-2.061-8.413-6.355-8.42-4.532.005-5.871 4.025-5.883 7.544.002 4.706 2.15 9.126 6.334 9.133v.224c-4.385-.004-6.555-4.601-6.563-9.357m-3.7.926a9.741 9.741 0 0 1 9.862-9.863v.23a9.5 9.5 0 0 0-9.638 9.633c.01 5.617 4.227 9.365 9.776 9.367a9.576 9.576 0 0 0 9.872-10.001c-.004-5.557-4.423-8.994-10.01-8.998v-.231c5.673.006 10.225 3.531 10.235 9.229a9.817 9.817 0 0 1-10.097 10.231c-5.651-.01-9.989-3.854-10-9.597M210.252 171.655l.055-.052v-9.904a2.183 2.183 0 0 0-2.303-2.485h-.575v-.793c1.238 0 2.456.105 3.694.105 1.086 0 2.169-.105 3.253-.105v.793h-.397c-1.108 0-2.354.21-2.354 3.355v12.02a17.05 17.05 0 0 0 .162 2.67h-1.005l-13.608-15.167v10.888c0 2.3.45 3.089 2.48 3.089h.453v.794c-1.136 0-2.27-.104-3.407-.104-1.19 0-2.405.104-3.594.104v-.794h.37c1.827 0 2.378-1.242 2.378-3.35v-11.131a2.366 2.366 0 0 0-2.407-2.374h-.341v-.793c1.003 0 2.033.105 3.039.105.79 0 1.552-.105 2.348-.105z"/><path class="c" d="M210.19 171.603v-.007l-.02-.02zm.062.052l.084-.076zm.53 5.485h.866a18.657 18.657 0 0 1-.138-2.551v-12.02c0-3.176 1.334-3.464 2.468-3.472h.286v-.562c-1.049.008-2.088.104-3.144.104-1.203 0-2.384-.096-3.58-.104v.562h.465a2.315 2.315 0 0 1 2.41 2.602l-.028 9.987-.05.051-.085.087-11.757-13.289c-.782 0-1.551.104-2.351.104-.974 0-1.966-.096-2.927-.104v.562h.232a2.492 2.492 0 0 1 2.518 2.49v11.13c0 2.115-.59 3.465-2.491 3.473l-.259-.003v.561c1.147-.008 2.322-.105 3.484-.105 1.102 0 2.197.097 3.292.105v-.558h-.341c-2.073-.003-2.593-.91-2.593-3.21v-11.184zm1.006.23l-1.093-.037-13.407-14.941v10.588c.03 2.3.38 2.946 2.364 2.97h.57v1.025h-.113c-1.144 0-2.279-.105-3.408-.105-1.184 0-2.4.105-3.598.105h-.108v-1.025h.481c1.741-.005 2.243-1.127 2.264-3.232v-11.13a2.252 2.252 0 0 0-2.291-2.258h-.454v-1.024h.108c1.013 0 2.043.104 3.041.104.784 0 1.543-.104 2.438-.063l11.609 13.07V161.7c-.009-2.099-1.416-2.354-2.187-2.37h-.696v-1.024h.121c1.241 0 2.46.104 3.69.104 1.081 0 2.16-.104 3.258-.104h.11v1.024h-.51c-1.089.028-2.213.128-2.235 3.24v12.02a17.478 17.478 0 0 0 .15 2.65l.022.13zM222.483 161.38h-.053l-2.463 7.478h4.947zm-3.863 11.705a11.09 11.09 0 0 0-.578 2.058c0 .796 1.113.926 1.98.926h.294v.793a59.335 59.335 0 0 0-3.2-.102c-.95 0-1.9.045-2.847.102v-.793h.15a2.385 2.385 0 0 0 2.297-1.72l4.235-12.122a21.595 21.595 0 0 0 .972-3.279 13.593 13.593 0 0 0 2.412-1.136.567.567 0 0 1 .209-.053.17.17 0 0 1 .18.083c.08.209.16.447.24.658l4.86 13.82c.315.921.633 1.898.98 2.694a1.672 1.672 0 0 0 1.742 1.055h.162v.793a74.312 74.312 0 0 0-3.65-.102c-1.292 0-2.615.044-3.963.102v-.793h.293c.603 0 1.64-.105 1.64-.766a8.46 8.46 0 0 0-.533-1.904l-1.029-3.063h-5.996z"/><path class="c" d="M222.373 161.415l.052-.02zm-2.245 7.326h4.622l-2.298-7.075zm-.319.23l2.537-7.707h.137v.117l-.03.008.03-.008v-.117h.08l2.498 7.707zm5.397 7.771c1.308-.048 2.593-.1 3.853-.1 1.228 0 2.377.052 3.53.098l-.003-.554h-.045a1.804 1.804 0 0 1-1.848-1.129c-.347-.798-.662-1.778-.978-2.7l-4.861-13.821a24.101 24.101 0 0 1-.224-.63c-.022-.031-.02-.031-.036-.031h-.052a.468.468 0 0 0-.15.036 10.134 10.134 0 0 1-2.354 1.054 22.688 22.688 0 0 1-.983 3.3l-4.232 12.123a2.51 2.51 0 0 1-2.405 1.799h-.039v.553c.91-.046 1.817-.097 2.736-.097 1.024 0 2.069.051 3.083.097v-.553h-.178c-.86-.012-2.063-.103-2.097-1.044a10.958 10.958 0 0 1 .591-2.091l.106.033-.106-.036.87-2.823h6.157l1.061 3.137a8.245 8.245 0 0 1 .532 1.94c-.038.81-1.15.869-1.749.884h-.178zm7.49.233c-1.19-.047-2.377-.106-3.637-.106-1.289 0-2.613.059-3.959.106l-.117.006v-1.027h.402c.614 0 1.524-.142 1.525-.651a8.185 8.185 0 0 0-.529-1.866l-1.002-2.988h-5.832l-.816 2.67a11.162 11.162 0 0 0-.575 2.024c0 .647.99.811 1.864.811h.404v1.028l-.119-.007c-1.054-.047-2.137-.106-3.19-.106-.946 0-1.894.059-2.847.106l-.115.007v-1.028h.265a2.29 2.29 0 0 0 2.196-1.64l4.225-12.127a33.104 33.104 0 0 0 1.048-3.344 14.374 14.374 0 0 0 2.405-1.137.637.637 0 0 1 .25-.057.296.296 0 0 1 .288.154c.08.208.158.448.244.661l4.858 13.817c.318.925.633 1.9.976 2.689a1.558 1.558 0 0 0 1.634.984h.273v1.028zM239.362 174.27c0 1.063.734 1.376 1.582 1.486a19.21 19.21 0 0 0 3.49-.056 3.764 3.764 0 0 0 2.533-1.43 6.027 6.027 0 0 0 .82-1.9h.764c-.291 1.507-.66 2.988-.978 4.492-2.319 0-4.65-.103-6.972-.103-2.327 0-4.65.103-6.974.103v-.794h.365c.954 0 1.988-.13 1.988-1.769v-13.576c0-1.377-1.034-1.51-1.988-1.51h-.365v-.792c1.398 0 2.774.105 4.172.105 1.35 0 2.668-.105 4.019-.105v.793h-.664c-1.004 0-1.792.028-1.792 1.428z"/><path class="c" d="M247.478 176.747c.306-1.435.651-2.838.936-4.263h-.544a5.983 5.983 0 0 1-.811 1.859 3.925 3.925 0 0 1-2.619 1.472c-.691.07-1.378.106-2.025.106-.512 0-1.006-.023-1.486-.057-.86-.094-1.69-.463-1.69-1.593v-13.63c0-1.468.93-1.544 1.915-1.544h.544v-.562c-1.301.008-2.586.107-3.9.107-1.366 0-2.704-.099-4.057-.107v.562h.252c.942 0 2.096.165 2.096 1.62V174.3c0 1.71-1.149 1.887-2.096 1.887h-.252v.56c2.282-.005 4.566-.105 6.86-.105 2.297 0 4.59.1 6.877.105m.097.227c-2.33 0-4.657-.105-6.974-.105-2.324 0-4.65.105-6.98.105h-.11v-1.02h.481c.956-.024 1.863-.09 1.874-1.655v-13.582c-.011-1.286-.915-1.372-1.874-1.388h-.481v-1.024h.11c1.407 0 2.782.104 4.176.104 1.345 0 2.66-.104 4.02-.104h.106v1.024h-.77c-1.024.026-1.66-.02-1.683 1.312v13.63c.007.988.653 1.252 1.48 1.37.465.032.957.05 1.465.05a19.01 19.01 0 0 0 2-.103 3.696 3.696 0 0 0 2.459-1.38 5.951 5.951 0 0 0 .798-1.865l.022-.086h.996l-.023.138c-.3 1.51-.663 2.985-.983 4.49l-.021.09zM247.784 160.46h.328c.36 0 .525-.27.525-.71 0-.442-.256-.599-.543-.599h-.31zm-.938 1.467v-.135c.34-.049.404-.04.404-.248v-2.062c0-.29-.029-.39-.393-.374v-.142h1.424c.489 0 .94.234.94.74a.873.873 0 0 1-.658.839l.458.638a2.938 2.938 0 0 0 .612.656v.088h-.54c-.261 0-.49-.546-1-1.279h-.31v.922c0 .182.065.173.407.222v.135zm1.383.79a2.263 2.263 0 1 0-2.204-2.257 2.24 2.24 0 0 0 2.204 2.257m0-5.045a2.781 2.781 0 1 1-2.781 2.788 2.735 2.735 0 0 1 2.781-2.788"/><path class="a" d="M83.223 65.154a44.742 44.742 0 1 1 44.742 44.745 44.743 44.743 0 0 1-44.742-44.745z"/><path class="b" d="M128.027 110.695c-25.641.122-46.745-20.651-46.745-45.938 0-27.636 21.104-46.751 46.745-46.746h12.016c25.338-.005 48.463 19.101 48.463 46.746 0 25.278-23.125 45.938-48.463 45.938zm.104-88.851a42.424 42.424 0 1 0 42.426 42.428 42.43 42.43 0 0 0-42.426-42.428zM118.5 89.36V39.178a26.868 26.868 0 0 0 0 50.183zm36.524-25.088a26.917 26.917 0 0 0-17.272-25.1V89.37a26.917 26.917 0 0 0 17.272-25.099z"/></svg>
