<svg xmlns="http://www.w3.org/2000/svg" width="238.493" height="1.589in" viewBox="0 0 178.872 114.411"><defs><style>.e{fill:#231f20}</style><linearGradient id="a" x1="100.749" y1="59.076" x2="91.216" y2="44.149" gradientUnits="userSpaceOnUse"><stop offset="0" stop-color="#f9a020"/><stop offset=".25" stop-color="#f89b20"/><stop offset=".533" stop-color="#f78e20"/><stop offset=".62" stop-color="#f68820"/><stop offset=".735" stop-color="#f58120"/><stop offset="1" stop-color="#f47521"/></linearGradient><linearGradient id="b" x1="99.243" y1="58.873" x2="85.309" y2="31.638" gradientUnits="userSpaceOnUse"><stop offset="0" stop-color="#f68820" stop-opacity="0"/><stop offset=".113" stop-color="#ef8023" stop-opacity=".138"/><stop offset=".313" stop-color="#e47327" stop-opacity=".352"/><stop offset=".505" stop-color="#db682a" stop-opacity=".521"/><stop offset=".685" stop-color="#d5612c" stop-opacity=".641"/><stop offset=".849" stop-color="#d15d2e" stop-opacity=".715"/><stop offset=".982" stop-color="#d05b2e" stop-opacity=".74"/></linearGradient><clipPath id="c"><path d="M107.47 48.044A13.77 13.77 0 1 1 93.7 34.275a13.77 13.77 0 0 1 13.77 13.769z" fill="none"/></clipPath></defs><g style="isolation:isolate"><path fill="#fff" d="M.628.66L178.226.65v113.108l-177.573.004L.628.66z"/><path d="M177.599 63.555s-48.53 34.244-137.41 49.57h137.41z" fill="#f58220"/><path class="e" d="M178.226 0L0 .018V114.41h178.872L178.862 0zm-.646 1.297v111.816H1.292L1.285 1.301z"/><path class="e" d="M15.641 35.009H8.23v25.883h7.372c3.92 0 6.75-.924 9.235-2.988a12.987 12.987 0 0 0 4.7-9.935c0-7.639-5.708-12.96-13.896-12.96zm5.898 19.444c-1.586 1.433-3.647 2.058-6.91 2.058h-1.354V39.394h1.355c3.262 0 5.242.584 6.91 2.094a8.715 8.715 0 0 1 2.796 6.443 8.881 8.881 0 0 1-2.797 6.522zM31.859 35.009h5.049v25.884h-5.049zM49.253 44.941c-3.03-1.12-3.919-1.86-3.919-3.258 0-1.63 1.585-2.87 3.761-2.87a5.22 5.22 0 0 1 4.072 2.097l2.641-3.459a11.325 11.325 0 0 0-7.606-2.87c-4.58 0-8.073 3.18-8.073 7.416 0 3.566 1.627 5.392 6.369 7.099a20.143 20.143 0 0 1 3.49 1.474 3.099 3.099 0 0 1 1.513 2.678 3.69 3.69 0 0 1-3.92 3.65 5.972 5.972 0 0 1-5.51-3.451l-3.261 3.14c2.326 3.415 5.12 4.928 8.961 4.928 5.247 0 8.928-3.488 8.928-8.499 0-4.113-1.702-5.974-7.446-8.075zM58.291 47.969a13.404 13.404 0 0 0 13.662 13.507 13.96 13.96 0 0 0 6.33-1.508v-5.944c-2.018 2.02-3.806 2.835-6.095 2.835-5.085 0-8.694-3.686-8.694-8.928a8.604 8.604 0 0 1 8.459-8.89c2.408 0 4.231.86 6.33 2.913v-5.94a12.895 12.895 0 0 0-6.21-1.59A13.612 13.612 0 0 0 58.29 47.969zM118.314 52.395l-6.902-17.386h-5.516l10.985 26.548h2.717l11.181-26.548h-5.472l-6.993 17.386zM133.062 60.892h14.319v-4.381h-9.274v-6.987h8.932V45.14h-8.932v-5.746h9.274v-4.385h-14.319v25.883zM167.371 42.65c0-4.846-3.338-7.642-9.16-7.642h-7.486v25.884h5.043V50.495h.658l6.988 10.398h6.21l-8.15-10.905c3.803-.773 5.897-3.374 5.897-7.338zm-10.129 4.275h-1.474v-7.84h1.554c3.145 0 4.854 1.318 4.854 3.837 0 2.602-1.71 4.003-4.934 4.003z"/><path d="M107.47 48.04a13.77 13.77 0 1 1-13.769-13.769 13.77 13.77 0 0 1 13.77 13.769z" fill="url(#a)"/><path d="M107.47 48.04a13.77 13.77 0 1 1-13.769-13.769 13.77 13.77 0 0 1 13.77 13.769z" style="mix-blend-mode:multiply" opacity=".65" fill="url(#b)"/><g style="mix-blend-mode:multiply" opacity=".5"><g clip-path="url(#c)"><path d="M107.791 48.087A14.047 14.047 0 1 1 93.744 34.04a14.047 14.047 0 0 1 14.047 14.047z" style="mix-blend-mode:multiply" fill="#231f20"/><path d="M93.752 34.05a14.045 14.045 0 1 1-14.045 14.046A14.046 14.046 0 0 1 93.752 34.05z" style="mix-blend-mode:multiply" fill="#242122"/><path d="M93.76 34.06a14.044 14.044 0 1 1-14.044 14.045A14.046 14.046 0 0 1 93.76 34.06z" style="mix-blend-mode:multiply" fill="#252223"/><path d="M93.767 34.07a14.043 14.043 0 1 1-14.042 14.044A14.043 14.043 0 0 1 93.767 34.07z" style="mix-blend-mode:multiply" fill="#272324"/><path d="M93.774 34.08a14.041 14.041 0 1 1-14.04 14.043 14.043 14.043 0 0 1 14.04-14.042z" style="mix-blend-mode:multiply" fill="#282526"/><path d="M93.783 34.091a14.04 14.04 0 1 1-14.04 14.04 14.04 14.04 0 0 1 14.04-14.04z" style="mix-blend-mode:multiply" fill="#292627"/><path d="M93.79 34.101A14.038 14.038 0 1 1 79.752 48.14 14.039 14.039 0 0 1 93.79 34.101z" style="mix-blend-mode:multiply" fill="#2a2728"/><path d="M93.797 34.111A14.037 14.037 0 1 1 79.76 48.15 14.039 14.039 0 0 1 93.797 34.11z" style="mix-blend-mode:multiply" fill="#2b292a"/><path d="M93.805 34.121A14.036 14.036 0 1 1 79.77 48.157a14.037 14.037 0 0 1 14.035-14.036z" style="mix-blend-mode:multiply" fill="#2d2a2b"/><path d="M93.813 34.131a14.034 14.034 0 1 1-14.035 14.035 14.036 14.036 0 0 1 14.034-14.035z" style="mix-blend-mode:multiply" fill="#2e2b2d"/><path d="M93.82 34.142a14.033 14.033 0 1 1-14.032 14.033A14.034 14.034 0 0 1 93.82 34.142z" style="mix-blend-mode:multiply" fill="#2f2d2e"/><path d="M93.828 34.151a14.031 14.031 0 1 1-14.031 14.033 14.033 14.033 0 0 1 14.031-14.033z" style="mix-blend-mode:multiply" fill="#302e2f"/><path d="M93.836 34.162a14.03 14.03 0 1 1-14.03 14.03 14.031 14.031 0 0 1 14.03-14.03z" style="mix-blend-mode:multiply" fill="#312f31"/><path d="M93.844 34.172a14.03 14.03 0 1 1-14.029 14.03 14.03 14.03 0 0 1 14.029-14.03z" style="mix-blend-mode:multiply" fill="#323132"/><path d="M93.85 34.182A14.027 14.027 0 1 1 79.825 48.21 14.029 14.029 0 0 1 93.85 34.182z" style="mix-blend-mode:multiply" fill="#343233"/><path d="M93.858 34.192a14.026 14.026 0 1 1-14.026 14.027 14.028 14.028 0 0 1 14.026-14.027z" style="mix-blend-mode:multiply" fill="#353334"/><path d="M93.865 34.202a14.025 14.025 0 1 1-14.024 14.026 14.026 14.026 0 0 1 14.024-14.026z" style="mix-blend-mode:multiply" fill="#363436"/><path d="M93.873 34.212A14.023 14.023 0 1 1 79.85 48.236a14.024 14.024 0 0 1 14.023-14.024z" style="mix-blend-mode:multiply" fill="#373537"/><path d="M93.88 34.223a14.022 14.022 0 1 1-14.02 14.023 14.023 14.023 0 0 1 14.02-14.023z" style="mix-blend-mode:multiply" fill="#383738"/><path d="M93.889 34.233a14.02 14.02 0 1 1-14.02 14.02 14.023 14.023 0 0 1 14.02-14.02z" style="mix-blend-mode:multiply" fill="#393839"/><path d="M93.897 34.243a14.02 14.02 0 1 1-14.02 14.02 14.02 14.02 0 0 1 14.02-14.02z" style="mix-blend-mode:multiply" fill="#3a393a"/><path d="M93.904 34.253a14.018 14.018 0 1 1-14.017 14.018 14.019 14.019 0 0 1 14.017-14.018z" style="mix-blend-mode:multiply" fill="#3b3a3c"/><path d="M93.912 34.263a14.017 14.017 0 1 1-14.017 14.018 14.018 14.018 0 0 1 14.017-14.018z" style="mix-blend-mode:multiply" fill="#3c3b3d"/><path d="M93.92 34.273A14.015 14.015 0 1 1 79.904 48.29 14.017 14.017 0 0 1 93.92 34.273z" style="mix-blend-mode:multiply" fill="#3d3c3e"/><path d="M93.927 34.284a14.014 14.014 0 1 1-14.013 14.014 14.015 14.015 0 0 1 14.013-14.014z" style="mix-blend-mode:multiply" fill="#3e3d3f"/><path d="M93.934 34.293a14.012 14.012 0 1 1-14.012 14.013 14.014 14.014 0 0 1 14.012-14.013z" style="mix-blend-mode:multiply" fill="#3f3e40"/><path d="M93.941 34.304a14.01 14.01 0 1 1-14.01 14.011 14.012 14.012 0 0 1 14.01-14.01z" style="mix-blend-mode:multiply" fill="#403f41"/><path d="M93.95 34.314a14.01 14.01 0 1 1-14.01 14.01 14.01 14.01 0 0 1 14.01-14.01z" style="mix-blend-mode:multiply" fill="#414042"/><path d="M93.957 34.324A14.008 14.008 0 1 1 79.95 48.333a14.008 14.008 0 0 1 14.008-14.009z" style="mix-blend-mode:multiply" fill="#424143"/><path d="M93.965 34.335a14.007 14.007 0 1 1-14.007 14.007 14.008 14.008 0 0 1 14.007-14.007z" style="mix-blend-mode:multiply" fill="#434244"/><path d="M93.973 34.344A14.006 14.006 0 1 1 79.967 48.35a14.007 14.007 0 0 1 14.006-14.006z" style="mix-blend-mode:multiply" fill="#444345"/><path d="M93.98 34.355a14.004 14.004 0 1 1-14.004 14.004 14.005 14.005 0 0 1 14.005-14.004z" style="mix-blend-mode:multiply" fill="#454446"/><path d="M93.988 34.365a14.003 14.003 0 1 1-14.003 14.003 14.003 14.003 0 0 1 14.003-14.003z" style="mix-blend-mode:multiply" fill="#454547"/><path d="M93.995 34.374a14.002 14.002 0 1 1-14.001 14.002 14.002 14.002 0 0 1 14.001-14.002z" style="mix-blend-mode:multiply" fill="#464648"/><path d="M94.003 34.385a14 14 0 1 1-14 14 14.002 14.002 0 0 1 14-14z" style="mix-blend-mode:multiply" fill="#474749"/><path d="M94.01 34.395a13.999 13.999 0 1 1-13.998 13.999 14 14 0 0 1 13.999-13.999z" style="mix-blend-mode:multiply" fill="#48484a"/><path d="M94.018 34.405A13.997 13.997 0 1 1 80.02 48.403a13.998 13.998 0 0 1 13.997-13.998z" style="mix-blend-mode:multiply" fill="#49494b"/><path d="M94.025 34.416a13.996 13.996 0 1 1-13.994 13.996 13.997 13.997 0 0 1 13.994-13.996z" style="mix-blend-mode:multiply" fill="#4a4a4c"/><path d="M94.033 34.426A13.994 13.994 0 1 1 80.04 48.42a13.996 13.996 0 0 1 13.994-13.995z" style="mix-blend-mode:multiply" fill="#4b4b4d"/><path d="M94.041 34.435A13.993 13.993 0 1 1 80.048 48.43 13.996 13.996 0 0 1 94.04 34.435z" style="mix-blend-mode:multiply" fill="#4c4c4e"/><path d="M94.049 34.446a13.992 13.992 0 1 1-13.992 13.992A13.993 13.993 0 0 1 94.05 34.446z" style="mix-blend-mode:multiply" fill="#4d4d4f"/><path d="M94.056 34.456a13.99 13.99 0 1 1-13.99 13.99 13.992 13.992 0 0 1 13.99-13.99z" style="mix-blend-mode:multiply" fill="#4d4e50"/><path d="M94.064 34.466a13.99 13.99 0 1 1-13.989 13.99 13.99 13.99 0 0 1 13.99-13.99z" style="mix-blend-mode:multiply" fill="#4e4f51"/><path d="M94.072 34.477a13.988 13.988 0 1 1-13.988 13.987 13.988 13.988 0 0 1 13.988-13.987z" style="mix-blend-mode:multiply" fill="#4f5052"/><path d="M94.078 34.486a13.987 13.987 0 1 1-13.985 13.987 13.988 13.988 0 0 1 13.985-13.987z" style="mix-blend-mode:multiply" fill="#505052"/><path d="M94.086 34.497a13.985 13.985 0 1 1-13.984 13.985 13.986 13.986 0 0 1 13.984-13.985z" style="mix-blend-mode:multiply" fill="#515153"/><path d="M94.095 34.507A13.984 13.984 0 1 1 80.11 48.49a13.984 13.984 0 0 1 13.984-13.984z" style="mix-blend-mode:multiply" fill="#525254"/><path d="M94.102 34.517A13.982 13.982 0 1 1 80.12 48.5a13.983 13.983 0 0 1 13.982-13.983z" style="mix-blend-mode:multiply" fill="#535355"/><circle cx="94.109" cy="48.508" r="13.981" style="mix-blend-mode:multiply" fill="#535456"/><path d="M94.117 34.537a13.98 13.98 0 1 1-13.98 13.98 13.98 13.98 0 0 1 13.98-13.98z" style="mix-blend-mode:multiply" fill="#545557"/><path d="M94.125 34.548a13.978 13.978 0 1 1-13.978 13.978 13.98 13.98 0 0 1 13.978-13.978z" style="mix-blend-mode:multiply" fill="#555658"/><path d="M94.133 34.557a13.977 13.977 0 1 1-13.977 13.978 13.977 13.977 0 0 1 13.977-13.978z" style="mix-blend-mode:multiply" fill="#565759"/><path d="M94.14 34.568a13.975 13.975 0 1 1-13.975 13.975A13.976 13.976 0 0 1 94.14 34.568z" style="mix-blend-mode:multiply" fill="#57585a"/><path d="M94.147 34.578a13.974 13.974 0 1 1-13.973 13.974 13.974 13.974 0 0 1 13.972-13.974z" style="mix-blend-mode:multiply" fill="#58585b"/><path d="M94.156 34.588a13.973 13.973 0 1 1-13.973 13.973 13.974 13.974 0 0 1 13.973-13.973z" style="mix-blend-mode:multiply" fill="#58595b"/><path d="M94.162 34.598a13.971 13.971 0 1 1-13.97 13.971 13.973 13.973 0 0 1 13.97-13.97z" style="mix-blend-mode:multiply" fill="#595a5c"/><path d="M94.17 34.608a13.97 13.97 0 1 1-13.97 13.97 13.971 13.971 0 0 1 13.97-13.97z" style="mix-blend-mode:multiply" fill="#5a5b5d"/><path d="M94.178 34.619A13.969 13.969 0 1 1 80.21 48.587a13.969 13.969 0 0 1 13.968-13.968z" style="mix-blend-mode:multiply" fill="#5b5c5e"/><path d="M94.186 34.628a13.967 13.967 0 1 1-13.967 13.968 13.967 13.967 0 0 1 13.967-13.968z" style="mix-blend-mode:multiply" fill="#5c5d5f"/><path d="M94.193 34.64a13.965 13.965 0 1 1-13.965 13.965 13.967 13.967 0 0 1 13.965-13.966z" style="mix-blend-mode:multiply" fill="#5c5d60"/><path d="M94.201 34.648a13.965 13.965 0 1 1-13.965 13.965 13.966 13.966 0 0 1 13.965-13.965z" style="mix-blend-mode:multiply" fill="#5d5e61"/><path d="M94.209 34.659a13.963 13.963 0 1 1-13.963 13.963 13.964 13.964 0 0 1 13.963-13.963z" style="mix-blend-mode:multiply" fill="#5e5f61"/><path d="M94.217 34.67A13.961 13.961 0 1 1 80.255 48.63 13.962 13.962 0 0 1 94.217 34.67z" style="mix-blend-mode:multiply" fill="#5f6062"/><path d="M94.224 34.68a13.96 13.96 0 1 1-13.96 13.96 13.96 13.96 0 0 1 13.96-13.96z" style="mix-blend-mode:multiply" fill="#606163"/><path d="M94.23 34.69a13.959 13.959 0 1 1-13.957 13.958A13.959 13.959 0 0 1 94.23 34.689z" style="mix-blend-mode:multiply" fill="#606264"/><path d="M94.238 34.7a13.957 13.957 0 1 1-13.956 13.957A13.959 13.959 0 0 1 94.238 34.7z" style="mix-blend-mode:multiply" fill="#616265"/><path d="M94.246 34.71A13.956 13.956 0 1 1 80.29 48.666 13.957 13.957 0 0 1 94.246 34.71z" style="mix-blend-mode:multiply" fill="#626366"/><path d="M94.254 34.72a13.955 13.955 0 1 1-13.955 13.955A13.956 13.956 0 0 1 94.254 34.72z" style="mix-blend-mode:multiply" fill="#636466"/><path d="M94.262 34.73a13.953 13.953 0 1 1-13.954 13.953A13.954 13.954 0 0 1 94.262 34.73z" style="mix-blend-mode:multiply" fill="#646567"/><path d="M94.27 34.74a13.952 13.952 0 1 1-13.952 13.953A13.952 13.952 0 0 1 94.27 34.74z" style="mix-blend-mode:multiply" fill="#646668"/><path d="M94.277 34.75a13.95 13.95 0 1 1-13.95 13.952 13.952 13.952 0 0 1 13.95-13.951z" style="mix-blend-mode:multiply" fill="#656669"/><path d="M94.285 34.76a13.949 13.949 0 1 1-13.95 13.95 13.95 13.95 0 0 1 13.95-13.95z" style="mix-blend-mode:multiply" fill="#66676a"/><path d="M94.291 34.77a13.948 13.948 0 1 1-13.947 13.948A13.95 13.95 0 0 1 94.291 34.77z" style="mix-blend-mode:multiply" fill="#67686a"/><path d="M94.299 34.78a13.947 13.947 0 1 1-13.946 13.947 13.947 13.947 0 0 1 13.946-13.946z" style="mix-blend-mode:multiply" fill="#67696b"/><path d="M94.309 34.791a13.945 13.945 0 1 1-13.947 13.946A13.946 13.946 0 0 1 94.31 34.79z" style="mix-blend-mode:multiply" fill="#686a6c"/><path d="M94.314 34.801a13.944 13.944 0 1 1-13.942 13.944A13.945 13.945 0 0 1 94.314 34.8z" style="mix-blend-mode:multiply" fill="#696a6d"/><path d="M94.322 34.811A13.942 13.942 0 1 1 80.38 48.753a13.944 13.944 0 0 1 13.942-13.942z" style="mix-blend-mode:multiply" fill="#6a6b6d"/><path d="M94.33 34.821a13.941 13.941 0 1 1-13.94 13.941 13.942 13.942 0 0 1 13.94-13.94z" style="mix-blend-mode:multiply" fill="#6b6c6e"/><path d="M94.338 34.831a13.94 13.94 0 1 1-13.94 13.94 13.94 13.94 0 0 1 13.94-13.94z" style="mix-blend-mode:multiply" fill="#6b6d6f"/><path d="M94.346 34.841a13.938 13.938 0 1 1-13.94 13.939 13.938 13.938 0 0 1 13.94-13.939z" style="mix-blend-mode:multiply" fill="#6c6d70"/><path d="M94.353 34.852a13.937 13.937 0 1 1-13.937 13.937A13.937 13.937 0 0 1 94.354 34.85z" style="mix-blend-mode:multiply" fill="#6d6e71"/><path d="M94.36 34.862a13.936 13.936 0 1 1-13.935 13.935A13.937 13.937 0 0 1 94.36 34.862z" style="mix-blend-mode:multiply" fill="#6d6f71"/><path d="M94.37 34.873a13.934 13.934 0 1 1-13.936 13.933A13.934 13.934 0 0 1 94.37 34.873z" style="mix-blend-mode:multiply" fill="#6e7072"/><circle cx="94.376" cy="48.815" r="13.933" style="mix-blend-mode:multiply" fill="#6f7073"/><path d="M94.383 34.892a13.932 13.932 0 1 1-13.931 13.932 13.932 13.932 0 0 1 13.93-13.932z" style="mix-blend-mode:multiply" fill="#707174"/><path d="M94.39 34.903a13.93 13.93 0 1 1-13.929 13.93 13.931 13.931 0 0 1 13.93-13.93z" style="mix-blend-mode:multiply" fill="#707274"/><path d="M94.398 34.913A13.929 13.929 0 1 1 80.47 48.84a13.93 13.93 0 0 1 13.928-13.928z" style="mix-blend-mode:multiply" fill="#717375"/><path d="M94.406 34.923A13.928 13.928 0 1 1 80.48 48.85a13.928 13.928 0 0 1 13.927-13.927z" style="mix-blend-mode:multiply" fill="#727376"/><path d="M94.414 34.933a13.926 13.926 0 1 1-13.926 13.926 13.927 13.927 0 0 1 13.926-13.926z" style="mix-blend-mode:multiply" fill="#737477"/><path d="M94.422 34.943a13.925 13.925 0 1 1-13.925 13.925 13.925 13.925 0 0 1 13.925-13.925z" style="mix-blend-mode:multiply" fill="#737577"/><path d="M94.43 34.954a13.923 13.923 0 1 1-13.924 13.922A13.924 13.924 0 0 1 94.43 34.954z" style="mix-blend-mode:multiply" fill="#747678"/><path d="M94.438 34.963a13.922 13.922 0 1 1-13.923 13.922 13.923 13.923 0 0 1 13.922-13.922z" style="mix-blend-mode:multiply" fill="#757679"/><path d="M94.443 34.973a13.92 13.92 0 1 1-13.92 13.921 13.921 13.921 0 0 1 13.92-13.92z" style="mix-blend-mode:multiply" fill="#75777a"/><path d="M94.451 34.984a13.92 13.92 0 1 1-13.918 13.919 13.92 13.92 0 0 1 13.918-13.92z" style="mix-blend-mode:multiply" fill="#76787a"/><path d="M94.46 34.994a13.918 13.918 0 1 1-13.917 13.918A13.918 13.918 0 0 1 94.46 34.994z" style="mix-blend-mode:multiply" fill="#77797b"/><path d="M94.467 35.003A13.916 13.916 0 1 1 80.55 48.92a13.917 13.917 0 0 1 13.916-13.917z" style="mix-blend-mode:multiply" fill="#78797c"/><path d="M94.475 35.014A13.915 13.915 0 1 1 80.56 48.93a13.915 13.915 0 0 1 13.915-13.915z" style="mix-blend-mode:multiply" fill="#787a7d"/><path d="M94.482 35.024A13.914 13.914 0 1 1 80.57 48.938a13.914 13.914 0 0 1 13.913-13.914z" style="mix-blend-mode:multiply" fill="#797b7d"/><circle cx="94.49" cy="48.947" r="13.912" transform="rotate(-75.901 94.49 48.947)" style="mix-blend-mode:multiply" fill="#7a7b7e"/><path d="M94.498 35.044a13.911 13.911 0 1 1-13.911 13.912 13.911 13.911 0 0 1 13.911-13.912z" style="mix-blend-mode:multiply" fill="#7a7c7f"/><path d="M94.506 35.055a13.91 13.91 0 1 1-13.91 13.909 13.909 13.909 0 0 1 13.91-13.91z" style="mix-blend-mode:multiply" fill="#7b7d7f"/><path d="M94.514 35.065a13.908 13.908 0 1 1-13.909 13.908 13.91 13.91 0 0 1 13.909-13.908z" style="mix-blend-mode:multiply" fill="#7c7e80"/><path d="M94.52 35.075a13.907 13.907 0 1 1-13.906 13.907A13.907 13.907 0 0 1 94.52 35.075z" style="mix-blend-mode:multiply" fill="#7d7e81"/><path d="M94.527 35.085A13.906 13.906 0 1 1 80.623 48.99a13.906 13.906 0 0 1 13.904-13.906z" style="mix-blend-mode:multiply" fill="#7d7f82"/><path d="M94.535 35.095A13.904 13.904 0 1 1 80.631 49a13.904 13.904 0 0 1 13.904-13.904z" style="mix-blend-mode:multiply" fill="#7e8082"/><path d="M94.543 35.105a13.903 13.903 0 1 1-13.902 13.903 13.903 13.903 0 0 1 13.902-13.903z" style="mix-blend-mode:multiply" fill="#7f8183"/><path d="M94.55 35.116a13.901 13.901 0 1 1-13.9 13.9 13.902 13.902 0 0 1 13.9-13.9z" style="mix-blend-mode:multiply" fill="#7f8184"/><path d="M94.559 35.126a13.9 13.9 0 1 1-13.9 13.9 13.901 13.901 0 0 1 13.9-13.9z" style="mix-blend-mode:multiply" fill="#808285"/><path d="M94.566 35.136a13.899 13.899 0 1 1-13.898 13.898 13.899 13.899 0 0 1 13.898-13.898z" style="mix-blend-mode:multiply" fill="#818385"/><path d="M94.574 35.146a13.897 13.897 0 1 1-13.898 13.897 13.897 13.897 0 0 1 13.898-13.897z" style="mix-blend-mode:multiply" fill="#828386"/><path d="M94.582 35.156a13.896 13.896 0 1 1-13.896 13.896 13.897 13.897 0 0 1 13.896-13.896z" style="mix-blend-mode:multiply" fill="#828487"/><path d="M94.589 35.166a13.895 13.895 0 1 1-13.894 13.895 13.896 13.896 0 0 1 13.894-13.895z" style="mix-blend-mode:multiply" fill="#838587"/><path d="M94.596 35.176A13.893 13.893 0 1 1 80.704 49.07a13.894 13.894 0 0 1 13.892-13.893z" style="mix-blend-mode:multiply" fill="#848688"/><path d="M94.603 35.187a13.892 13.892 0 1 1-13.89 13.892 13.893 13.893 0 0 1 13.89-13.892z" style="mix-blend-mode:multiply" fill="#848689"/><path d="M94.611 35.197a13.89 13.89 0 1 1-13.89 13.89 13.89 13.89 0 0 1 13.89-13.89z" style="mix-blend-mode:multiply" fill="#85878a"/><path d="M94.62 35.207a13.889 13.889 0 1 1-13.89 13.889 13.89 13.89 0 0 1 13.89-13.889z" style="mix-blend-mode:multiply" fill="#86888a"/><path d="M94.627 35.217A13.888 13.888 0 1 1 80.74 49.104a13.888 13.888 0 0 1 13.887-13.887z" style="mix-blend-mode:multiply" fill="#86888b"/><path d="M94.635 35.227a13.886 13.886 0 1 1-13.886 13.886 13.888 13.888 0 0 1 13.886-13.886z" style="mix-blend-mode:multiply" fill="#87898c"/><path d="M94.643 35.237a13.885 13.885 0 1 1-13.886 13.884 13.885 13.885 0 0 1 13.886-13.884z" style="mix-blend-mode:multiply" fill="#888a8c"/><path d="M94.65 35.248A13.884 13.884 0 1 1 80.766 49.13 13.883 13.883 0 0 1 94.65 35.248z" style="mix-blend-mode:multiply" fill="#898b8d"/><path d="M94.658 35.258a13.882 13.882 0 1 1-13.883 13.881 13.882 13.882 0 0 1 13.883-13.881z" style="mix-blend-mode:multiply" fill="#898b8e"/><path d="M94.665 35.268a13.88 13.88 0 1 1-13.88 13.88 13.883 13.883 0 0 1 13.88-13.88z" style="mix-blend-mode:multiply" fill="#8a8c8f"/><path d="M94.673 35.278a13.88 13.88 0 1 1-13.88 13.879 13.88 13.88 0 0 1 13.88-13.88z" style="mix-blend-mode:multiply" fill="#8b8d8f"/><path d="M94.68 35.288a13.878 13.878 0 1 1-13.878 13.878A13.879 13.879 0 0 1 94.68 35.288z" style="mix-blend-mode:multiply" fill="#8b8d90"/><path d="M94.688 35.298A13.877 13.877 0 1 1 80.81 49.174a13.877 13.877 0 0 1 13.876-13.876z" style="mix-blend-mode:multiply" fill="#8c8e91"/><path d="M94.695 35.309A13.875 13.875 0 1 1 80.82 49.183 13.874 13.874 0 0 1 94.695 35.31z" style="mix-blend-mode:multiply" fill="#8d8f91"/><path d="M94.703 35.319A13.874 13.874 0 1 1 80.83 49.192a13.875 13.875 0 0 1 13.874-13.873z" style="mix-blend-mode:multiply" fill="#8d9092"/><path d="M94.711 35.329A13.873 13.873 0 1 1 80.838 49.2a13.873 13.873 0 0 1 13.873-13.872z" style="mix-blend-mode:multiply" fill="#8e9093"/><path d="M94.719 35.338A13.872 13.872 0 1 1 80.847 49.21 13.872 13.872 0 0 1 94.72 35.34z" style="mix-blend-mode:multiply" fill="#8f9194"/><path d="M94.727 35.35a13.87 13.87 0 1 1-13.871 13.868 13.87 13.87 0 0 1 13.87-13.869z" style="mix-blend-mode:multiply" fill="#909294"/><path d="M94.733 35.359a13.869 13.869 0 1 1-13.868 13.868 13.868 13.868 0 0 1 13.868-13.868z" style="mix-blend-mode:multiply" fill="#909295"/><path d="M94.74 35.37a13.867 13.867 0 1 1-13.866 13.866A13.867 13.867 0 0 1 94.74 35.37z" style="mix-blend-mode:multiply" fill="#919396"/><path d="M94.748 35.38a13.866 13.866 0 1 1-13.865 13.865 13.867 13.867 0 0 1 13.865-13.866z" style="mix-blend-mode:multiply" fill="#929497"/><path d="M94.756 35.39a13.864 13.864 0 1 1-13.864 13.863A13.865 13.865 0 0 1 94.756 35.39z" style="mix-blend-mode:multiply" fill="#939597"/><path d="M94.764 35.4A13.863 13.863 0 1 1 80.9 49.262 13.863 13.863 0 0 1 94.764 35.4z" style="mix-blend-mode:multiply" fill="#939598"/><path d="M94.772 35.41A13.862 13.862 0 1 1 80.91 49.271 13.862 13.862 0 0 1 94.772 35.41z" style="mix-blend-mode:multiply" fill="#949699"/><path d="M94.78 35.42a13.86 13.86 0 1 1-13.86 13.86 13.86 13.86 0 0 1 13.86-13.86z" style="mix-blend-mode:multiply" fill="#959799"/><path d="M94.787 35.43a13.859 13.859 0 1 1-13.859 13.858 13.859 13.859 0 0 1 13.86-13.858z" style="mix-blend-mode:multiply" fill="#95989a"/><path d="M94.795 35.44a13.858 13.858 0 1 1-13.858 13.857A13.858 13.858 0 0 1 94.795 35.44z" style="mix-blend-mode:multiply" fill="#96989b"/><path d="M94.803 35.45a13.856 13.856 0 1 1-13.857 13.856 13.855 13.855 0 0 1 13.857-13.855z" style="mix-blend-mode:multiply" fill="#97999c"/><path d="M94.81 35.46a13.855 13.855 0 1 1-13.855 13.854A13.855 13.855 0 0 1 94.81 35.46z" style="mix-blend-mode:multiply" fill="#989a9c"/><path d="M94.817 35.47a13.854 13.854 0 1 1-13.853 13.854A13.854 13.854 0 0 1 94.817 35.47z" style="mix-blend-mode:multiply" fill="#989a9d"/><path d="M94.824 35.48a13.852 13.852 0 1 1-13.85 13.853 13.853 13.853 0 0 1 13.85-13.852z" style="mix-blend-mode:multiply" fill="#999b9e"/><path d="M94.832 35.49a13.851 13.851 0 1 1-13.85 13.851 13.85 13.85 0 0 1 13.85-13.85z" style="mix-blend-mode:multiply" fill="#9a9c9f"/><path d="M94.84 35.501A13.85 13.85 0 1 1 80.991 49.35 13.85 13.85 0 0 1 94.84 35.501z" style="mix-blend-mode:multiply" fill="#9b9d9f"/><path d="M94.848 35.511A13.848 13.848 0 1 1 81 49.36 13.847 13.847 0 0 1 94.847 35.51z" style="mix-blend-mode:multiply" fill="#9b9da0"/><path d="M94.856 35.521a13.847 13.847 0 1 1-13.847 13.846 13.847 13.847 0 0 1 13.847-13.846z" style="mix-blend-mode:multiply" fill="#9c9ea1"/><path d="M94.863 35.532a13.845 13.845 0 1 1-13.845 13.844 13.845 13.845 0 0 1 13.845-13.844z" style="mix-blend-mode:multiply" fill="#9d9fa1"/><path d="M94.871 35.541a13.844 13.844 0 1 1-13.844 13.844A13.844 13.844 0 0 1 94.87 35.542z" style="mix-blend-mode:multiply" fill="#9da0a2"/><path d="M94.878 35.552a13.842 13.842 0 1 1-13.842 13.842 13.842 13.842 0 0 1 13.842-13.842z" style="mix-blend-mode:multiply" fill="#9ea0a3"/><path d="M94.887 35.562a13.841 13.841 0 1 1-13.842 13.84 13.84 13.84 0 0 1 13.842-13.84z" style="mix-blend-mode:multiply" fill="#9fa1a4"/><path d="M94.894 35.572a13.84 13.84 0 1 1-13.84 13.84 13.84 13.84 0 0 1 13.84-13.84z" style="mix-blend-mode:multiply" fill="#a0a2a4"/><path d="M94.9 35.583A13.838 13.838 0 1 1 81.063 49.42 13.839 13.839 0 0 1 94.9 35.583z" style="mix-blend-mode:multiply" fill="#a0a3a5"/><path d="M94.908 35.592A13.837 13.837 0 1 1 81.072 49.43a13.837 13.837 0 0 1 13.836-13.837z" style="mix-blend-mode:multiply" fill="#a1a3a6"/><path d="M94.916 35.603a13.835 13.835 0 1 1-13.835 13.834 13.836 13.836 0 0 1 13.835-13.834z" style="mix-blend-mode:multiply" fill="#a2a4a7"/><path d="M94.924 35.613A13.835 13.835 0 1 1 81.09 49.446a13.833 13.833 0 0 1 13.834-13.833z" style="mix-blend-mode:multiply" fill="#a3a5a7"/><path d="M94.932 35.623a13.833 13.833 0 1 1-13.833 13.832 13.833 13.833 0 0 1 13.833-13.832z" style="mix-blend-mode:multiply" fill="#a3a6a8"/><path d="M94.94 35.633a13.831 13.831 0 1 1-13.832 13.83 13.832 13.832 0 0 1 13.832-13.83z" style="mix-blend-mode:multiply" fill="#a4a6a9"/><path d="M94.947 35.643a13.83 13.83 0 1 1-13.83 13.83 13.83 13.83 0 0 1 13.83-13.83z" style="mix-blend-mode:multiply" fill="#a5a7aa"/><path d="M94.954 35.654A13.829 13.829 0 1 1 81.126 49.48a13.828 13.828 0 0 1 13.828-13.827z" style="mix-blend-mode:multiply" fill="#a6a8aa"/><path d="M94.962 35.663A13.827 13.827 0 1 1 81.135 49.49a13.827 13.827 0 0 1 13.827-13.827z" style="mix-blend-mode:multiply" fill="#a6a9ab"/><path d="M94.969 35.674a13.826 13.826 0 1 1-13.825 13.825A13.825 13.825 0 0 1 94.97 35.674z" style="mix-blend-mode:multiply" fill="#a7a9ac"/><path d="M94.977 35.684a13.825 13.825 0 1 1-13.824 13.823 13.825 13.825 0 0 1 13.824-13.823z" style="mix-blend-mode:multiply" fill="#a8aaad"/><path d="M94.984 35.694a13.823 13.823 0 1 1-13.822 13.823 13.823 13.823 0 0 1 13.822-13.823z" style="mix-blend-mode:multiply" fill="#a9abad"/><path d="M94.992 35.705a13.822 13.822 0 1 1-13.821 13.82 13.82 13.82 0 0 1 13.821-13.82z" style="mix-blend-mode:multiply" fill="#a9acae"/><path d="M95 35.714a13.82 13.82 0 1 1-13.82 13.82A13.82 13.82 0 0 1 95 35.714z" style="mix-blend-mode:multiply" fill="#aaacaf"/><path d="M95.008 35.725a13.82 13.82 0 1 1-13.819 13.817 13.819 13.819 0 0 1 13.819-13.817z" style="mix-blend-mode:multiply" fill="#abadb0"/><path d="M95.016 35.734a13.818 13.818 0 1 1-13.818 13.818 13.818 13.818 0 0 1 13.818-13.818z" style="mix-blend-mode:multiply" fill="#acaeb0"/><path d="M95.022 35.745A13.817 13.817 0 1 1 81.207 49.56a13.816 13.816 0 0 1 13.816-13.815z" style="mix-blend-mode:multiply" fill="#adafb1"/><path d="M95.031 35.755A13.815 13.815 0 1 1 81.216 49.57 13.814 13.814 0 0 1 95.03 35.755z" style="mix-blend-mode:multiply" fill="#adafb2"/><path d="M95.038 35.765a13.813 13.813 0 1 1-13.813 13.813 13.812 13.812 0 0 1 13.813-13.813z" style="mix-blend-mode:multiply" fill="#aeb0b3"/><path d="M95.045 35.775a13.813 13.813 0 1 1-13.811 13.811 13.813 13.813 0 0 1 13.81-13.811z" style="mix-blend-mode:multiply" fill="#afb1b3"/><path d="M95.053 35.785a13.811 13.811 0 1 1-13.81 13.81 13.81 13.81 0 0 1 13.81-13.81z" style="mix-blend-mode:multiply" fill="#b0b2b4"/><path d="M95.06 35.795a13.81 13.81 0 1 1-13.809 13.809 13.81 13.81 0 0 1 13.81-13.809z" style="mix-blend-mode:multiply" fill="#b0b2b5"/><path d="M95.068 35.806A13.808 13.808 0 1 1 81.26 49.613a13.808 13.808 0 0 1 13.808-13.807z" style="mix-blend-mode:multiply" fill="#b1b3b6"/><path d="M95.076 35.816A13.807 13.807 0 1 1 81.27 49.62a13.806 13.806 0 0 1 13.806-13.805z" style="mix-blend-mode:multiply" fill="#b2b4b6"/><path d="M95.084 35.826A13.806 13.806 0 1 1 81.278 49.63a13.805 13.805 0 0 1 13.806-13.804z" style="mix-blend-mode:multiply" fill="#b3b5b7"/><path d="M95.092 35.836a13.804 13.804 0 1 1-13.804 13.803 13.805 13.805 0 0 1 13.804-13.803z" style="mix-blend-mode:multiply" fill="#b4b6b8"/><path d="M95.1 35.846a13.803 13.803 0 1 1-13.804 13.802A13.803 13.803 0 0 1 95.1 35.846z" style="mix-blend-mode:multiply" fill="#b4b6b9"/><path d="M95.106 35.856a13.802 13.802 0 1 1-13.8 13.8 13.801 13.801 0 0 1 13.8-13.8z" style="mix-blend-mode:multiply" fill="#b5b7b9"/><path d="M95.113 35.867a13.8 13.8 0 1 1-13.799 13.799 13.8 13.8 0 0 1 13.8-13.8z" style="mix-blend-mode:multiply" fill="#b6b8ba"/><path d="M95.122 35.876a13.799 13.799 0 1 1-13.799 13.798 13.798 13.798 0 0 1 13.8-13.798z" style="mix-blend-mode:multiply" fill="#b7b9bb"/><path d="M95.129 35.887a13.797 13.797 0 1 1-13.797 13.796A13.797 13.797 0 0 1 95.13 35.887z" style="mix-blend-mode:multiply" fill="#b8b9bc"/><path d="M95.137 35.897A13.796 13.796 0 1 1 81.34 49.692a13.796 13.796 0 0 1 13.796-13.795z" style="mix-blend-mode:multiply" fill="#b8babd"/><path d="M95.145 35.907A13.794 13.794 0 1 1 81.35 49.7a13.794 13.794 0 0 1 13.795-13.793z" style="mix-blend-mode:multiply" fill="#b9bbbd"/><path d="M95.152 35.917A13.793 13.793 0 1 1 81.36 49.71a13.793 13.793 0 0 1 13.793-13.792z" style="mix-blend-mode:multiply" fill="#babcbe"/><path d="M95.16 35.927a13.792 13.792 0 1 1-13.792 13.79 13.79 13.79 0 0 1 13.792-13.79z" style="mix-blend-mode:multiply" fill="#bbbdbf"/><path d="M95.167 35.938a13.79 13.79 0 1 1-13.79 13.789 13.79 13.79 0 0 1 13.79-13.79z" style="mix-blend-mode:multiply" fill="#bbbdc0"/><path d="M95.176 35.948a13.79 13.79 0 1 1-13.79 13.787 13.789 13.789 0 0 1 13.79-13.787z" style="mix-blend-mode:multiply" fill="#bcbec0"/><path d="M95.183 35.958a13.788 13.788 0 1 1-13.788 13.787 13.788 13.788 0 0 1 13.788-13.787z" style="mix-blend-mode:multiply" fill="#bdbfc1"/><path d="M95.19 35.968a13.786 13.786 0 1 1-13.786 13.785A13.786 13.786 0 0 1 95.19 35.968z" style="mix-blend-mode:multiply" fill="#bec0c2"/><path d="M95.197 35.978a13.785 13.785 0 1 1-13.784 13.784 13.785 13.785 0 0 1 13.784-13.784z" style="mix-blend-mode:multiply" fill="#bfc0c3"/><path d="M95.205 35.988A13.784 13.784 0 1 1 81.422 49.77a13.783 13.783 0 0 1 13.783-13.782z" style="mix-blend-mode:multiply" fill="#bfc1c3"/><path d="M95.213 35.998A13.782 13.782 0 1 1 81.43 49.779a13.783 13.783 0 0 1 13.782-13.781z" style="mix-blend-mode:multiply" fill="#c0c2c4"/><path d="M95.22 36.009a13.78 13.78 0 1 1-13.78 13.779 13.78 13.78 0 0 1 13.78-13.78z" style="mix-blend-mode:multiply" fill="#c1c3c5"/><path d="M95.228 36.019A13.78 13.78 0 1 1 81.45 49.797a13.778 13.778 0 0 1 13.78-13.778z" style="mix-blend-mode:multiply" fill="#c2c4c6"/><path d="M95.236 36.029a13.778 13.778 0 1 1-13.778 13.777 13.777 13.777 0 0 1 13.778-13.777z" style="mix-blend-mode:multiply" fill="#c3c4c6"/><path d="M95.244 36.039a13.777 13.777 0 1 1-13.777 13.775A13.775 13.775 0 0 1 95.244 36.04z" style="mix-blend-mode:multiply" fill="#c3c5c7"/><path d="M95.251 36.049a13.776 13.776 0 1 1-13.775 13.774A13.776 13.776 0 0 1 95.251 36.05z" style="mix-blend-mode:multiply" fill="#c4c6c8"/><path d="M95.258 36.06a13.774 13.774 0 1 1-13.773 13.772A13.774 13.774 0 0 1 95.258 36.06z" style="mix-blend-mode:multiply" fill="#c5c7c9"/><path d="M95.267 36.07a13.773 13.773 0 1 1-13.773 13.77 13.772 13.772 0 0 1 13.773-13.77z" style="mix-blend-mode:multiply" fill="#c6c8ca"/><path d="M109.045 49.85a13.771 13.771 0 1 1-13.772-13.77 13.772 13.772 0 0 1 13.772 13.77z" style="mix-blend-mode:multiply" fill="#c7c8ca"/><path d="M95.28 36.087a13.771 13.771 0 1 1-13.771 13.77 13.77 13.77 0 0 1 13.771-13.77z" style="mix-blend-mode:multiply" opacity=".995" fill="#c7c9cb"/><path d="M95.287 36.095a13.771 13.771 0 1 1-13.77 13.77 13.771 13.771 0 0 1 13.77-13.77z" style="mix-blend-mode:multiply" opacity=".99" fill="#c7c9cb"/><path d="M95.294 36.103a13.771 13.771 0 1 1-13.771 13.77 13.77 13.77 0 0 1 13.771-13.77z" style="mix-blend-mode:multiply" opacity=".985" fill="#c7c9cb"/><path d="M95.3 36.111a13.771 13.771 0 1 1-13.77 13.77 13.771 13.771 0 0 1 13.77-13.77z" style="mix-blend-mode:multiply" fill="#c8c9cb" opacity=".98"/><path d="M95.307 36.12a13.771 13.771 0 1 1-13.77 13.77 13.77 13.77 0 0 1 13.77-13.77z" style="mix-blend-mode:multiply" opacity=".975" fill="#c8cacc"/><path d="M95.314 36.127a13.771 13.771 0 1 1-13.771 13.77 13.77 13.77 0 0 1 13.77-13.77z" style="mix-blend-mode:multiply" opacity=".97" fill="#c8cacc"/><path d="M95.32 36.135a13.771 13.771 0 1 1-13.771 13.77 13.771 13.771 0 0 1 13.771-13.77z" style="mix-blend-mode:multiply" opacity=".965" fill="#c8cacc"/><path d="M95.326 36.142a13.771 13.771 0 1 1-13.77 13.77 13.771 13.771 0 0 1 13.77-13.77z" style="mix-blend-mode:multiply" fill="#c9cacc" opacity=".96"/><path d="M95.333 36.15a13.771 13.771 0 1 1-13.771 13.77 13.77 13.77 0 0 1 13.771-13.77z" style="mix-blend-mode:multiply" opacity=".955" fill="#c9cbcd"/><path d="M95.34 36.16a13.771 13.771 0 1 1-13.771 13.77A13.771 13.771 0 0 1 95.34 36.16z" style="mix-blend-mode:multiply" opacity=".95" fill="#c9cbcd"/><path d="M95.346 36.167a13.771 13.771 0 1 1-13.77 13.77 13.77 13.77 0 0 1 13.77-13.77z" style="mix-blend-mode:multiply" opacity=".945" fill="#c9cbcd"/><path d="M95.353 36.174a13.771 13.771 0 1 1-13.771 13.77 13.77 13.77 0 0 1 13.772-13.77z" style="mix-blend-mode:multiply" fill="#cacbcd" opacity=".94"/><path d="M95.36 36.183a13.771 13.771 0 1 1-13.772 13.77 13.77 13.77 0 0 1 13.771-13.77z" style="mix-blend-mode:multiply" opacity=".935" fill="#caccce"/><path d="M95.366 36.19a13.771 13.771 0 1 1-13.771 13.77 13.77 13.77 0 0 1 13.771-13.77z" style="mix-blend-mode:multiply" opacity=".93" fill="#caccce"/><path d="M95.373 36.199a13.771 13.771 0 1 1-13.772 13.77 13.77 13.77 0 0 1 13.772-13.77z" style="mix-blend-mode:multiply" opacity=".925" fill="#cbccce"/><path d="M95.379 36.206a13.771 13.771 0 1 1-13.771 13.77 13.77 13.77 0 0 1 13.77-13.77z" style="mix-blend-mode:multiply" opacity=".92" fill="#cbccce"/><path d="M95.385 36.214a13.771 13.771 0 1 1-13.77 13.77 13.77 13.77 0 0 1 13.77-13.77z" style="mix-blend-mode:multiply" opacity=".915" fill="#cbcdcf"/><path d="M95.393 36.222a13.771 13.771 0 1 1-13.772 13.77 13.771 13.771 0 0 1 13.772-13.77z" style="mix-blend-mode:multiply" opacity=".91" fill="#cbcdcf"/><path d="M95.398 36.23A13.771 13.771 0 1 1 81.629 50a13.77 13.77 0 0 1 13.77-13.77z" style="mix-blend-mode:multiply" opacity=".905" fill="#cccdcf"/><path d="M95.405 36.238a13.771 13.771 0 1 1-13.77 13.77 13.77 13.77 0 0 1 13.77-13.77z" style="mix-blend-mode:multiply" opacity=".9" fill="#cccdcf"/><path d="M95.412 36.246a13.771 13.771 0 1 1-13.77 13.77 13.77 13.77 0 0 1 13.77-13.77z" style="mix-blend-mode:multiply" opacity=".895" fill="#ccced0"/><path d="M95.418 36.254a13.771 13.771 0 1 1-13.77 13.77 13.77 13.77 0 0 1 13.77-13.77z" style="mix-blend-mode:multiply" opacity=".89" fill="#ccced0"/><path d="M95.425 36.262a13.771 13.771 0 1 1-13.771 13.77 13.771 13.771 0 0 1 13.77-13.77z" style="mix-blend-mode:multiply" opacity=".886" fill="#cdced0"/><path d="M95.432 36.27A13.771 13.771 0 1 1 81.66 50.04a13.771 13.771 0 0 1 13.77-13.77z" style="mix-blend-mode:multiply" opacity=".881" fill="#cdced0"/><path d="M95.438 36.278a13.771 13.771 0 1 1-13.77 13.77 13.77 13.77 0 0 1 13.77-13.77z" style="mix-blend-mode:multiply" opacity=".876" fill="#cdcfd1"/><path d="M95.445 36.286a13.771 13.771 0 1 1-13.771 13.77 13.771 13.771 0 0 1 13.771-13.77z" style="mix-blend-mode:multiply" opacity=".871" fill="#cdcfd1"/><path d="M95.451 36.293a13.771 13.771 0 1 1-13.77 13.77 13.771 13.771 0 0 1 13.77-13.77z" style="mix-blend-mode:multiply" fill="#cecfd1" opacity=".866"/><path d="M95.457 36.301a13.771 13.771 0 1 1-13.77 13.77 13.77 13.77 0 0 1 13.77-13.77z" style="mix-blend-mode:multiply" opacity=".861" fill="#ced0d1"/><path d="M95.465 36.31a13.771 13.771 0 1 1-13.771 13.77 13.771 13.771 0 0 1 13.77-13.77z" style="mix-blend-mode:multiply" opacity=".856" fill="#ced0d1"/><path d="M95.47 36.318a13.771 13.771 0 1 1-13.77 13.77 13.77 13.77 0 0 1 13.77-13.77z" style="mix-blend-mode:multiply" fill="#ced0d2" opacity=".851"/><path d="M95.478 36.325a13.771 13.771 0 1 1-13.771 13.77 13.771 13.771 0 0 1 13.77-13.77z" style="mix-blend-mode:multiply" fill="#cfd0d2" opacity=".846"/><path d="M95.484 36.333a13.771 13.771 0 1 1-13.77 13.77 13.771 13.771 0 0 1 13.77-13.77z" style="mix-blend-mode:multiply" opacity=".841" fill="#cfd1d2"/><path d="M95.49 36.34a13.771 13.771 0 1 1-13.771 13.77A13.77 13.77 0 0 1 95.49 36.34z" style="mix-blend-mode:multiply" opacity=".836" fill="#cfd1d2"/><path d="M95.497 36.35a13.771 13.771 0 1 1-13.77 13.77 13.771 13.771 0 0 1 13.77-13.77z" style="mix-blend-mode:multiply" opacity=".831" fill="#d0d1d3"/><path d="M95.504 36.357a13.771 13.771 0 1 1-13.771 13.77 13.77 13.77 0 0 1 13.77-13.77z" style="mix-blend-mode:multiply" opacity=".826" fill="#d0d1d3"/><path d="M95.51 36.365a13.771 13.771 0 1 1-13.77 13.77 13.77 13.77 0 0 1 13.77-13.77z" style="mix-blend-mode:multiply" opacity=".821" fill="#d0d2d3"/><path d="M95.518 36.373a13.771 13.771 0 1 1-13.771 13.77 13.77 13.77 0 0 1 13.77-13.77z" style="mix-blend-mode:multiply" opacity=".816" fill="#d0d2d3"/><path d="M95.523 36.38a13.771 13.771 0 1 1-13.77 13.77 13.771 13.771 0 0 1 13.77-13.77z" style="mix-blend-mode:multiply" opacity=".811" fill="#d1d2d4"/><path d="M95.53 36.389a13.771 13.771 0 1 1-13.771 13.77 13.77 13.77 0 0 1 13.771-13.77z" style="mix-blend-mode:multiply" opacity=".806" fill="#d1d2d4"/><path d="M95.537 36.396a13.771 13.771 0 1 1-13.771 13.771 13.771 13.771 0 0 1 13.771-13.77z" style="mix-blend-mode:multiply" opacity=".801" fill="#d1d3d4"/><path d="M95.543 36.404a13.771 13.771 0 1 1-13.771 13.77 13.77 13.77 0 0 1 13.771-13.77z" style="mix-blend-mode:multiply" opacity=".796" fill="#d1d3d4"/><path d="M95.55 36.413a13.771 13.771 0 1 1-13.77 13.77 13.77 13.77 0 0 1 13.77-13.77z" style="mix-blend-mode:multiply" opacity=".791" fill="#d2d3d5"/><path d="M95.557 36.42a13.771 13.771 0 1 1-13.771 13.77 13.77 13.77 0 0 1 13.77-13.77z" style="mix-blend-mode:multiply" opacity=".786" fill="#d2d3d5"/><path d="M95.563 36.428a13.771 13.771 0 1 1-13.77 13.77 13.77 13.77 0 0 1 13.77-13.77z" style="mix-blend-mode:multiply" opacity=".781" fill="#d2d4d5"/><path d="M95.57 36.437a13.771 13.771 0 1 1-13.771 13.77 13.77 13.77 0 0 1 13.771-13.77z" style="mix-blend-mode:multiply" opacity=".776" fill="#d2d4d5"/><path d="M95.576 36.444a13.771 13.771 0 1 1-13.77 13.77 13.77 13.77 0 0 1 13.77-13.77z" style="mix-blend-mode:multiply" opacity=".771" fill="#d3d4d6"/><path d="M95.582 36.452a13.771 13.771 0 1 1-13.77 13.77 13.77 13.77 0 0 1 13.77-13.77z" style="mix-blend-mode:multiply" opacity=".766" fill="#d3d4d6"/><path d="M95.59 36.46a13.771 13.771 0 1 1-13.772 13.77A13.771 13.771 0 0 1 95.59 36.46z" style="mix-blend-mode:multiply" opacity=".761" fill="#d3d5d6"/><path d="M95.596 36.468a13.771 13.771 0 1 1-13.771 13.77 13.771 13.771 0 0 1 13.77-13.77z" style="mix-blend-mode:multiply" opacity=".756" fill="#d3d5d6"/><path d="M95.603 36.476a13.771 13.771 0 1 1-13.771 13.77 13.77 13.77 0 0 1 13.77-13.77z" style="mix-blend-mode:multiply" opacity=".751" fill="#d4d5d7"/><path d="M95.61 36.484a13.771 13.771 0 1 1-13.772 13.77 13.77 13.77 0 0 1 13.771-13.77z" style="mix-blend-mode:multiply" opacity=".746" fill="#d4d5d7"/><path d="M95.615 36.491a13.771 13.771 0 1 1-13.77 13.77 13.77 13.77 0 0 1 13.77-13.77z" style="mix-blend-mode:multiply" fill="#d4d6d7" opacity=".741"/><path d="M95.622 36.5a13.771 13.771 0 1 1-13.77 13.77 13.77 13.77 0 0 1 13.77-13.77z" style="mix-blend-mode:multiply" fill="#d5d6d7" opacity=".736"/><path d="M95.629 36.508a13.771 13.771 0 1 1-13.771 13.77 13.771 13.771 0 0 1 13.77-13.77z" style="mix-blend-mode:multiply" opacity=".731" fill="#d5d6d8"/><path d="M95.635 36.516a13.771 13.771 0 1 1-13.77 13.77 13.77 13.77 0 0 1 13.77-13.77z" style="mix-blend-mode:multiply" opacity=".726" fill="#d5d6d8"/><path d="M95.642 36.523a13.771 13.771 0 1 1-13.771 13.77 13.77 13.77 0 0 1 13.77-13.77z" style="mix-blend-mode:multiply" fill="#d5d7d8" opacity=".721"/><path d="M95.648 36.531a13.771 13.771 0 1 1-13.77 13.77 13.77 13.77 0 0 1 13.77-13.77z" style="mix-blend-mode:multiply" fill="#d6d7d8" opacity=".716"/><path d="M95.656 36.54a13.771 13.771 0 1 1-13.772 13.77 13.77 13.77 0 0 1 13.772-13.77z" style="mix-blend-mode:multiply" opacity=".711" fill="#d6d7d9"/><path d="M95.662 36.547a13.771 13.771 0 1 1-13.77 13.77 13.771 13.771 0 0 1 13.77-13.77z" style="mix-blend-mode:multiply" opacity=".707" fill="#d6d7d9"/><path d="M95.668 36.555a13.771 13.771 0 1 1-13.771 13.77 13.77 13.77 0 0 1 13.771-13.77z" style="mix-blend-mode:multiply" fill="#d6d8d9" opacity=".702"/><path d="M95.676 36.563a13.771 13.771 0 1 1-13.772 13.77 13.77 13.77 0 0 1 13.772-13.77z" style="mix-blend-mode:multiply" fill="#d7d8d9" opacity=".697"/><path d="M95.682 36.57A13.771 13.771 0 1 1 81.91 50.34a13.772 13.772 0 0 1 13.77-13.77z" style="mix-blend-mode:multiply" opacity=".692" fill="#d7d8da"/><path d="M95.688 36.579a13.771 13.771 0 1 1-13.77 13.77 13.77 13.77 0 0 1 13.77-13.77z" style="mix-blend-mode:multiply" opacity=".687" fill="#d7d8da"/><path d="M95.694 36.586a13.771 13.771 0 1 1-13.77 13.77 13.77 13.77 0 0 1 13.77-13.77z" style="mix-blend-mode:multiply" fill="#d7d9da" opacity=".682"/><path d="M95.701 36.594a13.771 13.771 0 1 1-13.77 13.77 13.771 13.771 0 0 1 13.77-13.77z" style="mix-blend-mode:multiply" fill="#d8d9da" opacity=".677"/><path d="M95.708 36.603a13.771 13.771 0 1 1-13.771 13.77 13.77 13.77 0 0 1 13.771-13.77z" style="mix-blend-mode:multiply" opacity=".672" fill="#d8d9db"/><path d="M95.715 36.61a13.771 13.771 0 1 1-13.771 13.77 13.77 13.77 0 0 1 13.77-13.77z" style="mix-blend-mode:multiply" opacity=".667" fill="#d8d9db"/><path d="M95.72 36.618a13.771 13.771 0 1 1-13.77 13.77 13.771 13.771 0 0 1 13.77-13.77z" style="mix-blend-mode:multiply" fill="#d8dadb" opacity=".662"/><path d="M95.727 36.626a13.771 13.771 0 1 1-13.77 13.77 13.77 13.77 0 0 1 13.77-13.77z" style="mix-blend-mode:multiply" fill="#d9dadb" opacity=".657"/><path d="M95.734 36.634a13.771 13.771 0 1 1-13.77 13.77 13.771 13.771 0 0 1 13.77-13.77z" style="mix-blend-mode:multiply" fill="#d9dadc" opacity=".652"/><path d="M95.74 36.642a13.771 13.771 0 1 1-13.771 13.77 13.77 13.77 0 0 1 13.771-13.77z" style="mix-blend-mode:multiply" fill="#d9dbdc" opacity=".647"/><path d="M95.746 36.65a13.771 13.771 0 1 1-13.77 13.77 13.77 13.77 0 0 1 13.77-13.77z" style="mix-blend-mode:multiply" opacity=".642" fill="#dadbdc"/><path d="M95.754 36.658a13.771 13.771 0 1 1-13.771 13.77 13.77 13.77 0 0 1 13.77-13.77z" style="mix-blend-mode:multiply" opacity=".637" fill="#dadbdc"/><path d="M95.76 36.666a13.771 13.771 0 1 1-13.77 13.77 13.77 13.77 0 0 1 13.77-13.77z" style="mix-blend-mode:multiply" fill="#dadbdd" opacity=".632"/><path d="M95.768 36.674a13.771 13.771 0 1 1-13.772 13.77 13.771 13.771 0 0 1 13.772-13.77z" style="mix-blend-mode:multiply" fill="#dadcdd" opacity=".627"/><path d="M95.773 36.681a13.771 13.771 0 1 1-13.77 13.77 13.772 13.772 0 0 1 13.77-13.77z" style="mix-blend-mode:multiply" opacity=".622" fill="#dbdcdd"/><path d="M95.78 36.69a13.771 13.771 0 1 1-13.77 13.77 13.77 13.77 0 0 1 13.77-13.77z" style="mix-blend-mode:multiply" opacity=".617" fill="#dbdcdd"/><path d="M95.787 36.698a13.771 13.771 0 1 1-13.77 13.77 13.771 13.771 0 0 1 13.77-13.77z" style="mix-blend-mode:multiply" fill="#dbdcde" opacity=".612"/><path d="M95.793 36.706a13.771 13.771 0 1 1-13.771 13.77 13.771 13.771 0 0 1 13.771-13.77z" style="mix-blend-mode:multiply" fill="#dbddde" opacity=".607"/><path d="M95.799 36.713a13.771 13.771 0 1 1-13.77 13.77 13.77 13.77 0 0 1 13.77-13.77z" style="mix-blend-mode:multiply" opacity=".602" fill="#dcddde"/><path d="M95.807 36.721a13.771 13.771 0 1 1-13.772 13.77 13.772 13.772 0 0 1 13.772-13.77z" style="mix-blend-mode:multiply" opacity=".597" fill="#dcddde"/><path d="M95.813 36.73A13.771 13.771 0 1 1 82.041 50.5a13.77 13.77 0 0 1 13.77-13.77z" style="mix-blend-mode:multiply" fill="#dcdddf" opacity=".592"/><path d="M95.818 36.737a13.771 13.771 0 1 1-13.77 13.77 13.77 13.77 0 0 1 13.77-13.77z" style="mix-blend-mode:multiply" fill="#dcdedf" opacity=".587"/><path d="M95.826 36.745a13.771 13.771 0 1 1-13.771 13.77 13.771 13.771 0 0 1 13.771-13.77z" style="mix-blend-mode:multiply" opacity=".582" fill="#dddedf"/><path d="M95.832 36.753a13.771 13.771 0 1 1-13.77 13.77 13.77 13.77 0 0 1 13.77-13.77z" style="mix-blend-mode:multiply" opacity=".577" fill="#dddedf"/><path d="M95.84 36.761a13.771 13.771 0 1 1-13.771 13.77 13.771 13.771 0 0 1 13.771-13.77z" style="mix-blend-mode:multiply" fill="#dddee0" opacity=".572"/><path d="M95.846 36.769a13.771 13.771 0 1 1-13.771 13.77 13.771 13.771 0 0 1 13.77-13.77z" style="mix-blend-mode:multiply" fill="#dddfe0" opacity=".567"/><path d="M95.852 36.777a13.771 13.771 0 1 1-13.77 13.77 13.77 13.77 0 0 1 13.77-13.77z" style="mix-blend-mode:multiply" opacity=".562" fill="#dedfe0"/><path d="M95.86 36.785a13.771 13.771 0 1 1-13.772 13.77 13.771 13.771 0 0 1 13.771-13.77z" style="mix-blend-mode:multiply" opacity=".557" fill="#dedfe0"/><path d="M95.865 36.793a13.771 13.771 0 1 1-13.77 13.77 13.77 13.77 0 0 1 13.77-13.77z" style="mix-blend-mode:multiply" fill="#dedfe1" opacity=".552"/><path d="M95.872 36.8a13.771 13.771 0 1 1-13.77 13.771A13.771 13.771 0 0 1 95.871 36.8z" style="mix-blend-mode:multiply" opacity=".547" fill="#dfe0e1"/><path d="M95.879 36.808a13.771 13.771 0 1 1-13.772 13.77 13.772 13.772 0 0 1 13.772-13.77z" style="mix-blend-mode:multiply" opacity=".542" fill="#dfe0e1"/><path d="M95.885 36.817a13.771 13.771 0 1 1-13.77 13.77 13.77 13.77 0 0 1 13.77-13.77z" style="mix-blend-mode:multiply" opacity=".537" fill="#dfe0e1"/><path d="M95.893 36.825a13.771 13.771 0 1 1-13.772 13.77 13.771 13.771 0 0 1 13.772-13.77z" style="mix-blend-mode:multiply" fill="#dfe0e2" opacity=".532"/><path d="M95.898 36.833a13.771 13.771 0 1 1-13.77 13.77 13.771 13.771 0 0 1 13.77-13.77z" style="mix-blend-mode:multiply" opacity=".527" fill="#e0e1e2"/><path d="M95.904 36.84a13.771 13.771 0 1 1-13.77 13.77 13.77 13.77 0 0 1 13.77-13.77z" style="mix-blend-mode:multiply" opacity=".522" fill="#e0e1e2"/><path d="M95.912 36.848a13.771 13.771 0 1 1-13.771 13.77 13.772 13.772 0 0 1 13.771-13.77z" style="mix-blend-mode:multiply" opacity=".517" fill="#e0e1e2"/><path d="M95.918 36.857a13.771 13.771 0 1 1-13.77 13.77 13.77 13.77 0 0 1 13.77-13.77z" style="mix-blend-mode:multiply" fill="#e0e1e3" opacity=".512"/><path d="M95.924 36.864a13.771 13.771 0 1 1-13.77 13.77 13.77 13.77 0 0 1 13.77-13.77z" style="mix-blend-mode:multiply" opacity=".507" fill="#e1e2e3"/><path d="M95.93 36.871a13.771 13.771 0 1 1-13.77 13.771 13.772 13.772 0 0 1 13.77-13.77z" style="mix-blend-mode:multiply" opacity=".502" fill="#e1e2e3"/><path d="M95.938 36.88a13.771 13.771 0 1 1-13.771 13.77 13.771 13.771 0 0 1 13.77-13.77z" style="mix-blend-mode:multiply" opacity=".497" fill="#e1e2e3"/><path d="M95.944 36.888a13.771 13.771 0 1 1-13.77 13.77 13.77 13.77 0 0 1 13.77-13.77z" style="mix-blend-mode:multiply" fill="#e1e2e4" opacity=".492"/><path d="M95.951 36.896a13.771 13.771 0 1 1-13.77 13.77 13.771 13.771 0 0 1 13.77-13.77z" style="mix-blend-mode:multiply" opacity=".488" fill="#e2e3e4"/><path d="M95.957 36.904a13.771 13.771 0 1 1-13.77 13.77 13.77 13.77 0 0 1 13.77-13.77z" style="mix-blend-mode:multiply" opacity=".483" fill="#e2e3e4"/><path d="M95.964 36.912a13.771 13.771 0 1 1-13.77 13.77 13.772 13.772 0 0 1 13.77-13.77z" style="mix-blend-mode:multiply" opacity=".478" fill="#e2e3e4"/><path d="M95.97 36.92A13.771 13.771 0 1 1 82.2 50.69a13.772 13.772 0 0 1 13.77-13.77z" style="mix-blend-mode:multiply" opacity=".473" fill="#e2e3e4"/><path d="M95.977 36.928a13.771 13.771 0 1 1-13.77 13.77 13.77 13.77 0 0 1 13.77-13.77z" style="mix-blend-mode:multiply" opacity=".468" fill="#e3e4e5"/><path d="M95.983 36.935a13.771 13.771 0 1 1-13.77 13.771 13.772 13.772 0 0 1 13.77-13.771z" style="mix-blend-mode:multiply" opacity=".463" fill="#e3e4e5"/><path d="M95.99 36.944a13.771 13.771 0 1 1-13.77 13.77 13.771 13.771 0 0 1 13.77-13.77z" style="mix-blend-mode:multiply" opacity=".458" fill="#e3e4e5"/><path d="M95.996 36.951a13.771 13.771 0 1 1-13.77 13.77 13.77 13.77 0 0 1 13.77-13.77z" style="mix-blend-mode:multiply" opacity=".453" fill="#e3e4e5"/><path d="M96.004 36.959A13.771 13.771 0 1 1 82.233 50.73a13.771 13.771 0 0 1 13.77-13.771z" style="mix-blend-mode:multiply" opacity=".448" fill="#e4e5e6"/><path d="M96.01 36.967a13.771 13.771 0 1 1-13.771 13.77 13.77 13.77 0 0 1 13.771-13.77z" style="mix-blend-mode:multiply" opacity=".443" fill="#e4e5e6"/><path d="M96.016 36.975a13.771 13.771 0 1 1-13.77 13.77 13.77 13.77 0 0 1 13.77-13.77z" style="mix-blend-mode:multiply" opacity=".438" fill="#e4e5e6"/><path d="M96.023 36.983a13.771 13.771 0 1 1-13.77 13.77 13.772 13.772 0 0 1 13.77-13.77z" style="mix-blend-mode:multiply" fill="#e5e5e6" opacity=".433"/><path d="M96.03 36.99a13.771 13.771 0 1 1-13.772 13.771 13.77 13.77 0 0 1 13.771-13.77z" style="mix-blend-mode:multiply" opacity=".428" fill="#e5e6e7"/><path d="M96.037 36.999A13.771 13.771 0 1 1 82.265 50.77a13.771 13.771 0 0 1 13.772-13.771z" style="mix-blend-mode:multiply" opacity=".423" fill="#e5e6e7"/><path d="M96.043 37.007a13.771 13.771 0 1 1-13.771 13.77 13.771 13.771 0 0 1 13.771-13.77z" style="mix-blend-mode:multiply" opacity=".418" fill="#e5e6e7"/><path d="M96.049 37.014a13.771 13.771 0 1 1-13.77 13.771 13.77 13.77 0 0 1 13.77-13.77z" style="mix-blend-mode:multiply" fill="#e6e6e7" opacity=".413"/><path d="M96.057 37.023a13.771 13.771 0 1 1-13.772 13.77 13.771 13.771 0 0 1 13.772-13.77z" style="mix-blend-mode:multiply" opacity=".408" fill="#e6e7e8"/><path d="M96.063 37.03A13.771 13.771 0 1 1 82.29 50.801 13.771 13.771 0 0 1 96.064 37.03z" style="mix-blend-mode:multiply" opacity=".403" fill="#e6e7e8"/><path d="M96.07 37.038a13.771 13.771 0 1 1-13.772 13.77 13.77 13.77 0 0 1 13.771-13.77z" style="mix-blend-mode:multiply" opacity=".398" fill="#e6e7e8"/><path d="M96.076 37.046a13.771 13.771 0 1 1-13.77 13.77 13.772 13.772 0 0 1 13.77-13.77z" style="mix-blend-mode:multiply" fill="#e7e8e8" opacity=".393"/><path d="M96.082 37.054a13.771 13.771 0 1 1-13.77 13.77 13.771 13.771 0 0 1 13.77-13.77z" style="mix-blend-mode:multiply" opacity=".388" fill="#e7e8e9"/><path d="M96.089 37.062a13.771 13.771 0 1 1-13.771 13.771 13.77 13.77 0 0 1 13.77-13.771z" style="mix-blend-mode:multiply" opacity=".383" fill="#e7e8e9"/><path d="M96.096 37.07a13.771 13.771 0 1 1-13.771 13.771 13.772 13.772 0 0 1 13.77-13.771z" style="mix-blend-mode:multiply" fill="#e8e8e9" opacity=".378"/><path d="M96.102 37.078a13.771 13.771 0 1 1-13.77 13.77 13.77 13.77 0 0 1 13.77-13.77z" style="mix-blend-mode:multiply" fill="#e8e9e9" opacity=".373"/><path d="M96.108 37.086a13.771 13.771 0 1 1-13.77 13.77 13.772 13.772 0 0 1 13.77-13.77z" style="mix-blend-mode:multiply" opacity=".368" fill="#e8e9ea"/><path d="M96.115 37.094a13.771 13.771 0 1 1-13.77 13.77 13.771 13.771 0 0 1 13.77-13.77z" style="mix-blend-mode:multiply" opacity=".363" fill="#e8e9ea"/><path d="M96.121 37.102a13.771 13.771 0 1 1-13.77 13.77 13.77 13.77 0 0 1 13.77-13.77z" style="mix-blend-mode:multiply" fill="#e9e9ea" opacity=".358"/><path d="M96.129 37.11a13.771 13.771 0 1 1-13.771 13.77 13.771 13.771 0 0 1 13.77-13.77z" style="mix-blend-mode:multiply" opacity=".353" fill="#e9eaeb"/><path d="M96.135 37.118a13.771 13.771 0 1 1-13.771 13.77 13.771 13.771 0 0 1 13.77-13.77z" style="mix-blend-mode:multiply" opacity=".348" fill="#e9eaeb"/><path d="M96.14 37.126a13.771 13.771 0 1 1-13.77 13.77 13.77 13.77 0 0 1 13.77-13.77z" style="mix-blend-mode:multiply" fill="#eaeaeb" opacity=".343"/><path d="M96.148 37.133a13.771 13.771 0 1 1-13.77 13.77 13.772 13.772 0 0 1 13.77-13.77z" style="mix-blend-mode:multiply" fill="#eaebeb" opacity=".338"/><path d="M96.154 37.141a13.771 13.771 0 1 1-13.77 13.771 13.771 13.771 0 0 1 13.77-13.77z" style="mix-blend-mode:multiply" opacity=".333" fill="#eaebec"/><path d="M96.162 37.15A13.771 13.771 0 1 1 82.39 50.92a13.77 13.77 0 0 1 13.772-13.77z" style="mix-blend-mode:multiply" opacity=".328" fill="#eaebec"/><path d="M96.168 37.157a13.771 13.771 0 1 1-13.771 13.771 13.771 13.771 0 0 1 13.771-13.77z" style="mix-blend-mode:multiply" fill="#ebebec" opacity=".323"/><path d="M96.174 37.166a13.771 13.771 0 1 1-13.77 13.77 13.77 13.77 0 0 1 13.77-13.77z" style="mix-blend-mode:multiply" fill="#ebecec" opacity=".318"/><path d="M96.182 37.173a13.771 13.771 0 1 1-13.772 13.77 13.771 13.771 0 0 1 13.772-13.77z" style="mix-blend-mode:multiply" opacity=".313" fill="#ebeced"/><path d="M96.188 37.181a13.771 13.771 0 1 1-13.772 13.77 13.771 13.771 0 0 1 13.772-13.77z" style="mix-blend-mode:multiply" opacity=".308" fill="#ebeced"/><path d="M96.193 37.189a13.771 13.771 0 1 1-13.77 13.77 13.77 13.77 0 0 1 13.77-13.77z" style="mix-blend-mode:multiply" opacity=".303" fill="#ececed"/><path d="M96.201 37.197a13.771 13.771 0 1 1-13.77 13.77 13.772 13.772 0 0 1 13.77-13.77z" style="mix-blend-mode:multiply" opacity=".298" fill="#ececed"/><path d="M96.207 37.205a13.771 13.771 0 1 1-13.77 13.77 13.771 13.771 0 0 1 13.77-13.77z" style="mix-blend-mode:multiply" fill="#eceded" opacity=".293"/><path d="M96.213 37.212a13.771 13.771 0 1 1-13.77 13.771 13.77 13.77 0 0 1 13.77-13.77z" style="mix-blend-mode:multiply" fill="#ecedee" opacity=".289"/><path d="M96.22 37.221a13.771 13.771 0 1 1-13.77 13.77 13.771 13.771 0 0 1 13.77-13.77z" style="mix-blend-mode:multiply" fill="#ededee" opacity=".284"/><path d="M96.227 37.228A13.771 13.771 0 1 1 82.457 51a13.771 13.771 0 0 1 13.77-13.77z" style="mix-blend-mode:multiply" opacity=".279" fill="#edeeee"/><path d="M96.232 37.236a13.771 13.771 0 1 1-13.77 13.771 13.772 13.772 0 0 1 13.77-13.77z" style="mix-blend-mode:multiply" opacity=".274" fill="#edeeee"/><path d="M96.24 37.245a13.771 13.771 0 1 1-13.771 13.77 13.771 13.771 0 0 1 13.771-13.77z" style="mix-blend-mode:multiply" fill="#edeeef" opacity=".269"/><path d="M96.246 37.252a13.771 13.771 0 1 1-13.77 13.77 13.77 13.77 0 0 1 13.77-13.77z" style="mix-blend-mode:multiply" fill="#eeeeef" opacity=".264"/><path d="M96.253 37.26a13.771 13.771 0 1 1-13.77 13.77 13.772 13.772 0 0 1 13.77-13.77z" style="mix-blend-mode:multiply" opacity=".259" fill="#eeefef"/><path d="M96.26 37.268a13.771 13.771 0 1 1-13.771 13.77 13.771 13.771 0 0 1 13.771-13.77z" style="mix-blend-mode:multiply" opacity=".254" fill="#eeefef"/><path d="M96.266 37.276a13.771 13.771 0 1 1-13.77 13.77 13.77 13.77 0 0 1 13.77-13.77z" style="mix-blend-mode:multiply" fill="#eeeff0" opacity=".249"/><path d="M96.273 37.284a13.771 13.771 0 1 1-13.77 13.771 13.772 13.772 0 0 1 13.77-13.77z" style="mix-blend-mode:multiply" fill="#efeff0" opacity=".244"/><path d="M96.28 37.291a13.771 13.771 0 1 1-13.772 13.772A13.772 13.772 0 0 1 96.28 37.29z" style="mix-blend-mode:multiply" opacity=".239" fill="#eff0f0"/><path d="M96.285 37.3a13.771 13.771 0 1 1-13.77 13.77 13.77 13.77 0 0 1 13.77-13.77z" style="mix-blend-mode:multiply" opacity=".234" fill="#eff0f0"/><path d="M96.293 37.308a13.771 13.771 0 1 1-13.771 13.77 13.772 13.772 0 0 1 13.771-13.77z" style="mix-blend-mode:multiply" opacity=".229" fill="#f0f0f1"/><path d="M96.299 37.316a13.771 13.771 0 1 1-13.77 13.77 13.771 13.771 0 0 1 13.77-13.77z" style="mix-blend-mode:multiply" opacity=".224" fill="#f0f0f1"/><path d="M96.306 37.324a13.771 13.771 0 1 1-13.771 13.77 13.771 13.771 0 0 1 13.77-13.77z" style="mix-blend-mode:multiply" opacity=".219" fill="#f0f1f1"/><path d="M96.313 37.331A13.771 13.771 0 1 1 82.54 51.102a13.772 13.772 0 0 1 13.772-13.77z" style="mix-blend-mode:multiply" opacity=".214" fill="#f0f1f1"/><path d="M96.318 37.34a13.771 13.771 0 1 1-13.77 13.77 13.77 13.77 0 0 1 13.77-13.77z" style="mix-blend-mode:multiply" opacity=".209" fill="#f1f1f2"/><path d="M96.325 37.347a13.771 13.771 0 1 1-13.77 13.772 13.772 13.772 0 0 1 13.77-13.772z" style="mix-blend-mode:multiply" opacity=".204" fill="#f1f1f2"/><path d="M96.332 37.355a13.771 13.771 0 1 1-13.77 13.77 13.771 13.771 0 0 1 13.77-13.77z" style="mix-blend-mode:multiply" opacity=".199" fill="#f1f2f2"/><path d="M96.338 37.363a13.771 13.771 0 1 1-13.77 13.771 13.77 13.77 0 0 1 13.77-13.77z" style="mix-blend-mode:multiply" opacity=".194" fill="#f1f2f2"/><path d="M96.345 37.371a13.771 13.771 0 1 1-13.77 13.771 13.77 13.77 0 0 1 13.77-13.77z" style="mix-blend-mode:multiply" opacity=".189" fill="#f2f2f3"/><path d="M96.352 37.38a13.771 13.771 0 1 1-13.77 13.77 13.771 13.771 0 0 1 13.77-13.77z" style="mix-blend-mode:multiply" opacity=".184" fill="#f2f2f3"/><path d="M96.357 37.387a13.771 13.771 0 1 1-13.77 13.77 13.77 13.77 0 0 1 13.77-13.77z" style="mix-blend-mode:multiply" opacity=".179" fill="#f2f3f3"/><path d="M96.365 37.395a13.771 13.771 0 1 1-13.77 13.771 13.772 13.772 0 0 1 13.77-13.771z" style="mix-blend-mode:multiply" opacity=".174" fill="#f2f3f3"/><path d="M96.371 37.403a13.771 13.771 0 1 1-13.77 13.77 13.771 13.771 0 0 1 13.77-13.77z" style="mix-blend-mode:multiply" opacity=".169" fill="#f3f3f4"/><path d="M96.378 37.41a13.771 13.771 0 1 1-13.771 13.772 13.771 13.771 0 0 1 13.77-13.771z" style="mix-blend-mode:multiply" opacity=".164" fill="#f3f3f4"/><path d="M96.385 37.418A13.771 13.771 0 1 1 82.614 51.19a13.772 13.772 0 0 1 13.77-13.77z" style="mix-blend-mode:multiply" fill="#f3f4f4" opacity=".159"/><path d="M96.39 37.427a13.771 13.771 0 1 1-13.77 13.77 13.77 13.77 0 0 1 13.77-13.77z" style="mix-blend-mode:multiply" fill="#f4f4f4" opacity=".154"/><path d="M96.398 37.434a13.771 13.771 0 1 1-13.771 13.772 13.77 13.77 0 0 1 13.772-13.772z" style="mix-blend-mode:multiply" opacity=".149" fill="#f4f4f5"/><path d="M96.404 37.443a13.771 13.771 0 1 1-13.77 13.77 13.771 13.771 0 0 1 13.77-13.77z" style="mix-blend-mode:multiply" opacity=".144" fill="#f4f4f5"/><path d="M96.41 37.45a13.771 13.771 0 1 1-13.77 13.771 13.77 13.77 0 0 1 13.77-13.77z" style="mix-blend-mode:multiply" fill="#f4f5f5" opacity=".139"/><path d="M96.418 37.459a13.771 13.771 0 1 1-13.771 13.77 13.77 13.77 0 0 1 13.771-13.77z" style="mix-blend-mode:multiply" fill="#f5f5f5" opacity=".134"/><path d="M96.424 37.466a13.771 13.771 0 1 1-13.77 13.771 13.771 13.771 0 0 1 13.77-13.77z" style="mix-blend-mode:multiply" fill="#f5f5f6" opacity=".129"/><path d="M96.43 37.474a13.771 13.771 0 1 1-13.77 13.771 13.771 13.771 0 0 1 13.77-13.77z" style="mix-blend-mode:multiply" fill="#f5f6f6" opacity=".124"/><path d="M96.438 37.482a13.771 13.771 0 1 1-13.772 13.77 13.771 13.771 0 0 1 13.772-13.77z" style="mix-blend-mode:multiply" fill="#f6f6f6" opacity=".119"/><path d="M96.443 37.49a13.771 13.771 0 1 1-13.77 13.771 13.77 13.77 0 0 1 13.77-13.771z" style="mix-blend-mode:multiply" opacity=".114" fill="#f6f6f7"/><path d="M96.45 37.498a13.771 13.771 0 1 1-13.77 13.771 13.77 13.77 0 0 1 13.77-13.771z" style="mix-blend-mode:multiply" opacity=".11" fill="#f6f6f7"/><path d="M96.457 37.506a13.771 13.771 0 1 1-13.77 13.77 13.772 13.772 0 0 1 13.77-13.77z" style="mix-blend-mode:multiply" fill="#f6f7f7" opacity=".104"/><path d="M96.463 37.514a13.771 13.771 0 1 1-13.77 13.77 13.771 13.771 0 0 1 13.77-13.77z" style="mix-blend-mode:multiply" fill="#f7f7f7" opacity=".1"/><path d="M96.47 37.522a13.771 13.771 0 1 1-13.77 13.77 13.77 13.77 0 0 1 13.77-13.77z" style="mix-blend-mode:multiply" fill="#f7f7f8" opacity=".095"/><path d="M96.477 37.53a13.771 13.771 0 1 1-13.77 13.771 13.77 13.77 0 0 1 13.77-13.771z" style="mix-blend-mode:multiply" fill="#f7f8f8" opacity=".09"/><path d="M96.482 37.538a13.771 13.771 0 1 1-13.77 13.77 13.77 13.77 0 0 1 13.77-13.77z" style="mix-blend-mode:multiply" fill="#f8f8f8" opacity=".085"/><path d="M96.49 37.545a13.771 13.771 0 1 1-13.771 13.771 13.771 13.771 0 0 1 13.771-13.77z" style="mix-blend-mode:multiply" fill="#f8f8f9" opacity=".08"/><path d="M96.496 37.554a13.771 13.771 0 1 1-13.77 13.77 13.77 13.77 0 0 1 13.77-13.77z" style="mix-blend-mode:multiply" fill="#f8f9f9" opacity=".075"/><path d="M96.502 37.562a13.771 13.771 0 1 1-13.77 13.77 13.771 13.771 0 0 1 13.77-13.77z" style="mix-blend-mode:multiply" opacity=".07" fill="#f9f9f9"/><path d="M96.51 37.57a13.771 13.771 0 1 1-13.771 13.77A13.772 13.772 0 0 1 96.51 37.57z" style="mix-blend-mode:multiply" opacity=".065" fill="#f9f9f9"/><path d="M96.516 37.577a13.771 13.771 0 1 1-13.77 13.771 13.77 13.77 0 0 1 13.77-13.77z" style="mix-blend-mode:multiply" fill="#f9fafa" opacity=".06"/><path d="M96.522 37.585a13.771 13.771 0 1 1-13.77 13.771 13.771 13.771 0 0 1 13.77-13.771z" style="mix-blend-mode:multiply" opacity=".055" fill="#fafafa"/><path d="M96.53 37.593a13.771 13.771 0 1 1-13.772 13.771 13.771 13.771 0 0 1 13.771-13.77z" style="mix-blend-mode:multiply" opacity=".05" fill="#fafafa"/><path d="M96.535 37.601a13.771 13.771 0 1 1-13.77 13.771 13.771 13.771 0 0 1 13.77-13.771z" style="mix-blend-mode:multiply" opacity=".045" fill="#fbfbfb"/><path d="M96.543 37.61a13.771 13.771 0 1 1-13.772 13.77 13.77 13.77 0 0 1 13.772-13.77z" style="mix-blend-mode:multiply" opacity=".04" fill="#fbfbfb"/><path d="M96.549 37.617a13.771 13.771 0 1 1-13.77 13.771 13.771 13.771 0 0 1 13.77-13.771z" style="mix-blend-mode:multiply" fill="#fbfcfc" opacity=".035"/><path d="M96.555 37.624a13.771 13.771 0 1 1-13.77 13.772 13.77 13.77 0 0 1 13.77-13.772z" style="mix-blend-mode:multiply" fill="#fcfcfc" opacity=".03"/><path d="M96.563 37.633a13.771 13.771 0 1 1-13.772 13.77 13.772 13.772 0 0 1 13.772-13.77z" style="mix-blend-mode:multiply" fill="#fcfcfd" opacity=".025"/><path d="M96.568 37.64a13.771 13.771 0 1 1-13.77 13.772 13.771 13.771 0 0 1 13.77-13.771z" style="mix-blend-mode:multiply" opacity=".02" fill="#fdfdfd"/><path d="M96.575 37.649a13.771 13.771 0 1 1-13.77 13.77 13.77 13.77 0 0 1 13.77-13.77z" style="mix-blend-mode:multiply" opacity=".015" fill="#fdfdfd"/><path d="M96.582 37.656a13.771 13.771 0 1 1-13.77 13.772 13.772 13.772 0 0 1 13.77-13.772z" style="mix-blend-mode:multiply" opacity=".01" fill="#fefefe"/><path d="M96.588 37.664a13.771 13.771 0 1 1-13.77 13.771 13.77 13.77 0 0 1 13.77-13.77z" style="mix-blend-mode:multiply" opacity=".005" fill="#fefefe"/></g></g><g><path class="e" d="M170.594 35.982c0-.454-.313-.702-.862-.702h-.73v2.275h.543v-.882l.637.882h.663l-.748-.938a.625.625 0 0 0 .497-.635zm-.957.31h-.092v-.595h.098c.268 0 .408.097.408.293 0 .201-.142.302-.414.302z"/><path class="e" d="M169.842 34.43a1.984 1.984 0 1 0 1.958 1.983 1.972 1.972 0 0 0-1.958-1.983zm-.008 3.612a1.629 1.629 0 1 1 1.57-1.626 1.603 1.603 0 0 1-1.57 1.626z"/></g></g></svg>
